<?xml version="1.0" standalone="no"?>
<!DOCTYPE svg PUBLIC "-//W3C//DTD SVG 1.1//EN" "http://www.w3.org/Graphics/SVG/1.1/DTD/svg11.dtd" >
<svg xmlns="http://www.w3.org/2000/svg">
<defs>
  <font id="Hotbox" horiz-adv-x="256">
    <font-face font-family="Hotbox"
      units-per-em="256" ascent="256"
      descent="0" />
    <missing-glyph horiz-adv-x="0" />
    <glyph glyph-name="back-78"
      unicode="&#xEA02;"
      horiz-adv-x="256" d="M59 224L59 219L149.5 219L240 219L240 155L240 91L134.758 91L29.516 91L53.278 114.778L77.04 138.555L73.246 142.26L69.452 145.964L38.98 115.48L8.508 84.996L38.747 54.757L68.985 24.519L72.73 28.264L76.476 32.009L52.496 56.004L28.516 80L139.758 80L251 80L251 154.5L251 229L155 229L59 229L59 224" />
    <glyph glyph-name="back-80"
      unicode="&#xEA03;"
      horiz-adv-x="256" d="M59 224.048L59 219.095L123.25 218.787L187.5 218.479L195.715 215.707C217.196 208.459 234.014 189.755 238.613 168C240.749 157.899 239.978 145.061 236.602 134.5C230.292 114.759 212.639 98.151 192.489 92.997C185.013 91.085 181.37 91 107.098 91L29.516 91L53.278 114.778L77.04 138.555L73.246 142.26L69.452 145.964L38.98 115.48L8.508 84.996L38.747 54.757L68.985 24.519L72.73 28.264L76.476 32.009L52.535 55.965L28.594 79.921L109.547 80.22L190.5 80.519L197.5 82.874C213.823 88.366 225.826 96.963 236.073 110.5C252.476 132.169 255.18 165.634 242.405 188.874C234.198 203.806 223.52 214.102 208.5 221.57C193.591 228.981 193.807 228.963 122.25 228.983L59 229L59 224.048" />
    <glyph glyph-name="block-bottom-left"
      unicode="&#xEA04;"
      horiz-adv-x="256" d="M133.462 249.758C133.197 249.066 133.098 222.625 133.24 191L133.5 133.5L192 133.5L250.5 133.5L250.5 192L250.5 250.5L192.222 250.758C146.131 250.962 133.843 250.753 133.462 249.758M240 192L240 144L192 144L144 144L144 192L144 240L192 240L240 240L240 192M59.249 66.751L16 23.503L16 62.251L16 101L10.49 101L4.981 101L5.24 53.25L5.5 5.5L53.25 5.24L101 4.981L101 10.49L101 16L62.254 16L23.509 16L66.975 59.475L110.441 102.95L107.024 106.475C105.145 108.414 103.358 110 103.052 110C102.747 110 83.035 90.538 59.249 66.751" />
    <glyph glyph-name="block-bottom-right"
      unicode="&#xEA05;"
      horiz-adv-x="256" d="M5.462 249.758C5.197 249.066 5.098 222.625 5.24 191L5.5 133.5L64 133.5L122.5 133.5L122.5 192L122.5 250.5L64.222 250.758C18.131 250.962 5.843 250.753 5.462 249.758M112 192L112 144L64 144L16 144L16 192L16 240L64 240L112 240L112 192M148.976 106.475L145.559 102.95L189.025 59.475L232.491 16L193.746 16L155 16L155 10.49L155 4.981L202.75 5.24L250.5 5.5L250.76 53.25L251.019 101L245.51 101L240 101L240 62.254L240 23.509L196.746 66.754C172.956 90.539 153.244 110 152.942 110C152.64 110 150.855 108.414 148.976 106.475" />
    <glyph glyph-name="block-down"
      unicode="&#xEA06;"
      horiz-adv-x="256" d="M5.671 250.337C5.302 249.968 5 231.967 5 210.333L5 171L128.011 171L251.023 171L250.761 210.75L250.5 250.5L128.421 250.754C61.277 250.894 6.039 250.706 5.671 250.337M240 210.5L240 181L128 181L16 181L16 210.5L16 240L128 240L240 240L240 210.5M123 80.758L123 28.515L98.722 52.778L74.445 77.04L70.74 73.246L67.036 69.452L97.518 38.982L128 8.512L158.482 38.982L188.964 69.452L185.26 73.246L181.555 77.04L157.278 52.778L133 28.515L133 80.758L133 133L128 133L123 133L123 80.758" />
    <glyph glyph-name="block-left"
      unicode="&#xEA07;"
      horiz-adv-x="256" d="M171 128L171 4.977L210.75 5.239L250.5 5.5L250.5 128L250.5 250.5L210.75 250.761L171 251.023L171 128M240 128L240 16L210.5 16L181 16L181 128L181 240L210.5 240L240 240L240 128M38.982 158.482L8.512 128L38.982 97.518L69.452 67.036L73.246 70.74L77.04 74.445L52.778 98.722L28.515 123L80.758 123L133 123L133 128L133 133L80.758 133L28.515 133L52.778 157.278L77.04 181.555L73.246 185.26L69.452 188.964L38.982 158.482" />
    <glyph glyph-name="block-right"
      unicode="&#xEA08;"
      horiz-adv-x="256" d="M5.461 249.75C5.2 249.062 5.101 193.825 5.243 127L5.5 5.5L45.25 5.239L85 4.977L85 127.989L85 251L45.469 251C14.764 251 5.831 250.721 5.461 249.75M75 128L75 16L45.5 16L16 16L16 128L16 240L45.5 240L75 240L75 128M182.736 185.269L178.991 181.524L203.238 157.262L227.485 133L175.242 133L123 133L123 128L123 123L175.242 123L227.485 123L203.222 98.722L178.96 74.445L182.754 70.74L186.548 67.036L217.02 97.52L247.492 128.004L216.987 158.509L186.481 189.015L182.736 185.269" />
    <glyph glyph-name="block-top-left"
      unicode="&#xEA09;"
      horiz-adv-x="256" d="M5.667 250.333C5.3 249.967 5 228.367 5 202.333L5 155L10.5 155L16 155L16 193.746L16 232.491L59.494 189.006L102.988 145.521L106.733 149.267L110.479 153.012L66.994 196.506L23.509 240L62.254 240L101 240L101 245.5L101 251L53.667 251C27.633 251 6.033 250.7 5.667 250.333M133.462 121.758C133.197 121.066 133.098 94.625 133.24 63L133.5 5.5L192 5.5L250.5 5.5L250.5 64L250.5 122.5L192.222 122.758C146.131 122.962 133.843 122.753 133.462 121.758M240 64L240 16L192 16L144 16L144 64L144 112L192 112L240 112L240 64" />
    <glyph glyph-name="block-top-right"
      unicode="&#xEA0A;"
      horiz-adv-x="256" d="M155 245.51L155 240L193.746 240L232.491 240L189.006 196.506L145.521 153.012L149.267 149.267L153.012 145.521L196.506 189.006L240 232.491L240 193.746L240 155L245.51 155L251.019 155L250.76 202.75L250.5 250.5L202.75 250.76L155 251.019L155 245.51M5.462 121.758C5.197 121.066 5.098 94.625 5.24 63L5.5 5.5L64 5.5L122.5 5.5L122.5 64L122.5 122.5L64.222 122.758C18.131 122.962 5.843 122.753 5.462 121.758M112 64L112 16L64 16L16 16L16 64L16 112L64 112L112 112L112 64" />
    <glyph glyph-name="block-up"
      unicode="&#xEA0B;"
      horiz-adv-x="256" d="M97.239 216.739L66.989 186.477L70.733 182.734L74.476 178.991L98.738 203.238L123 227.485L123 175.242L123 123L128 123L133 123L133 175.242L133 227.485L157.278 203.222L181.555 178.96L185.26 182.754L188.964 186.548L158.726 216.774C142.095 233.398 128.263 247 127.988 247C127.713 247 113.876 233.382 97.239 216.739M5.239 45.25L5.5 5.5L128 5.5L250.5 5.5L250.761 45.25L251.023 85L128 85L4.977 85L5.239 45.25M240 45.5L240 16L128 16L16 16L16 45.5L16 75L128 75L240 75L240 45.5" />
    <glyph glyph-name="bold-direction"
      unicode="&#xEA0C;"
      horiz-adv-x="256" d="M155 226L155 208L91 208L27 208L27 181.507L27 155.015L90.75 154.757L154.5 154.5L155 136.41L155.5 118.32L199.225 149.41C223.273 166.51 242.961 180.818 242.975 181.207C243 181.926 156.586 244 155.56 244C155.252 244 155 235.9 155 226M196.324 202.092C224.335 182.118 225.09 181.491 223.09 179.872C218.579 176.219 166.286 139 165.665 139C165.299 139 165 144.85 165 152L165 165L101 165L37 165L37 181L37 197L101 197L165 197L165 210.559C165 221.132 165.275 223.956 166.25 223.382C166.938 222.977 180.471 213.396 196.324 202.092M56.777 106.589C32.73 89.49 13.185 75.072 13.344 74.549C13.657 73.524 99.006 12.15 100.25 12.056C100.662 12.025 101 20.1 101 30L101 48L165 48L229 48L229 74.5L229 101L165.022 101L101.044 101L100.772 119.339L100.5 137.678L56.777 106.589M91 104.007L91 91.015L154.75 90.757L218.5 90.5L218.775 74.75L219.051 59L155.054 59L91.056 59L90.778 45.429L90.5 31.859L61.351 52.679C45.32 64.131 32.091 73.93 31.953 74.456C31.715 75.372 88.703 116.943 90.25 116.981C90.662 116.992 91 111.153 91 104.007" />
    <glyph glyph-name="bold-down"
      unicode="&#xEA0D;"
      horiz-adv-x="256" d="M38.497 184.997L13.509 159.994L70.754 102.748L128 45.502L185.248 102.75L242.496 159.999L217.25 185.245L192.003 210.492L160.002 178.502L128 146.512L96.244 178.256C78.779 195.715 64.263 210 63.987 210C63.711 210 52.24 198.749 38.497 184.997M96.252 163.202L127.907 131.403L159.953 163.449L191.998 195.495L209.747 177.746L227.495 159.998L177.748 110.25L128 60.503L78.256 110.247L28.512 159.991L45.995 177.495C55.611 187.123 63.73 195 64.038 195C64.346 195 78.842 180.691 96.252 163.202" />
    <glyph glyph-name="bold-left"
      unicode="&#xEA0E;"
      horiz-adv-x="256" d="M102.499 184.999L45.504 127.998L102.751 70.751L159.999 13.504L185.245 38.75L210.492 63.997L178.502 95.998L146.512 128L178.499 159.999L210.487 191.998L185.501 216.999C171.759 230.75 160.285 242 160.004 242C159.723 242 133.846 216.35 102.499 184.999M178.002 209.498L195.483 191.995L163.498 159.998L131.512 128L163.501 95.999L195.491 63.998L177.744 46.251L159.998 28.505L110.251 78.251L60.505 127.997L109.999 177.499C137.22 204.724 159.724 227 160.007 227C160.29 227 168.388 219.124 178.002 209.498" />
    <glyph glyph-name="bold-right"
      unicode="&#xEA0F;"
      horiz-adv-x="256" d="M70.499 216.999L45.513 191.998L77.501 159.999L109.488 128L77.498 95.998L45.508 63.997L70.755 38.75L96.001 13.504L153.249 70.751L210.496 127.998L153.501 184.999C122.154 216.35 96.277 242 95.996 242C95.715 242 84.241 230.75 70.499 216.999M146.001 177.499L195.495 127.997L145.749 78.251L96.002 28.505L78.256 46.251L60.509 63.998L92.499 95.999L124.488 128L92.502 159.998L60.517 191.995L77.998 209.498C87.612 219.124 95.71 227 95.993 227C96.276 227 118.78 204.724 146.001 177.499" />
    <glyph glyph-name="bold-up"
      unicode="&#xEA10;"
      horiz-adv-x="256" d="M70.5 153L13.506 95.999L38.751 70.754L63.997 45.508L95.998 77.498L128 109.488L160.002 77.498L192.003 45.508L217.249 70.754L242.494 95.999L185.5 153C154.154 184.35 128.279 210 128 210C127.721 210 101.846 184.35 70.5 153M178 145.5L227.493 96L209.738 78.25L191.983 60.5L159.992 92.532L128 124.564L96.008 92.532L64.017 60.5L46.262 78.25L28.507 96L78 145.5C105.221 172.725 127.721 195 128 195C128.279 195 150.779 172.725 178 145.5" />
    <glyph glyph-name="centralize"
      unicode="&#xEA11;"
      horiz-adv-x="256" d="M69.667 250.333C69.3 249.967 69 237.257 69 222.09L69 194.514L41.723 221.777L14.446 249.041L10.74 245.246L7.035 241.451L34.026 214.476L61.017 187.5L33.258 187L5.5 186.5L5.198 181.25L4.895 176L42.448 176L80 176L80 213.5L80 251L75.167 251C72.508 251 70.033 250.7 69.667 250.333M176 213.552L176 176L213.552 176L251.105 176L250.802 181.25L250.5 186.5L222.742 187L194.983 187.5L221.974 214.476L248.965 241.451L245.26 245.246L241.554 249.041L214.293 221.793L187.032 194.546L186.766 222.523L186.5 250.5L181.25 250.802L176 251.105L176 213.552M114.892 162.694C99.508 156.233 91 143.956 91 128.217C91 114.605 96.891 103.948 108.5 96.558C114.876 92.5 120.137 91 128 91C141.537 91 152.94 97.555 160.185 109.5C164.931 117.325 166.434 129.298 163.812 138.384C160.998 148.134 152.914 157.282 143.046 161.883C135.004 165.632 122.73 165.986 114.892 162.694M139.703 151.731C144.814 149.252 149.098 144.914 152.001 139.274C155.094 133.267 155.034 122.79 151.871 116.456C149.201 111.11 143.359 105.487 138.14 103.237C133.421 101.204 122.579 101.204 117.86 103.237C101.284 110.38 96.311 132.654 108.343 145.87C116.053 154.338 129.242 156.803 139.703 151.731M5.198 74.75L5.5 69.5L33.477 69.234L61.454 68.968L34.207 41.707L6.959 14.446L10.754 10.74L14.549 7.035L41.524 34.026L68.5 61.017L69 33.258L69.5 5.5L74.75 5.198L80 4.895L80 42.448L80 80L42.448 80L4.895 80L5.198 74.75M176 42.448L176 4.895L181.25 5.198L186.5 5.5L187 33.258L187.5 61.017L214.476 34.026L241.451 7.035L245.246 10.74L249.041 14.446L221.793 41.707L194.546 68.968L222.523 69.234L250.5 69.5L250.802 74.75L251.105 80L213.552 80L176 80L176 42.448" />
    <glyph glyph-name="circle-down-12"
      unicode="&#xEA12;"
      horiz-adv-x="256" d="M114.5 249.83C68.194 244.57 28.384 213.075 12.647 169.253C-4.227 122.261 9.627 68.791 47.15 36.083C104.908 -14.262 193.643 -0.484 232.96 64.933C261.756 112.846 254.402 174.291 215.135 213.855C194.382 234.765 169.464 246.699 139.789 249.94C128.857 251.133 125.863 251.12 114.5 249.83M142.566 238.928C180.027 233.717 211.616 211.023 228.07 177.5C238.201 156.86 241.918 134.932 238.928 113.434C233.756 76.256 210.947 44.506 177.283 27.627C123.585 0.703 57.015 22.353 29.249 75.771C9.741 113.302 12.132 155.815 35.747 191.328C42.214 201.052 55.72 214.37 66 221.16C88.458 235.991 116.646 242.533 142.566 238.928M77.652 162.111C85.766 149.429 127.607 87.052 128 87.052C128.393 87.052 170.234 149.429 178.348 162.111L180.196 165L128 165L75.804 165L77.652 162.111M160 154.271C160 153.302 128.643 106.049 128 106.049C127.357 106.049 96 153.302 96 154.271C96 154.672 110.4 155 128 155C145.6 155 160 154.672 160 154.271" />
    <glyph glyph-name="circle-down-40"
      unicode="&#xEA13;"
      horiz-adv-x="256" d="M114.5 249.83C68.194 244.57 28.384 213.075 12.647 169.253C-4.227 122.261 9.627 68.791 47.15 36.083C104.908 -14.262 193.643 -0.484 232.96 64.933C261.756 112.846 254.402 174.291 215.135 213.855C194.382 234.765 169.464 246.699 139.789 249.94C128.857 251.133 125.863 251.12 114.5 249.83M142.566 238.928C180.027 233.717 211.616 211.023 228.07 177.5C238.201 156.86 241.918 134.932 238.928 113.434C233.756 76.256 210.947 44.506 177.283 27.627C123.585 0.703 57.015 22.353 29.249 75.771C9.741 113.302 12.132 155.815 35.747 191.328C42.214 201.052 55.72 214.37 66 221.16C88.458 235.991 116.646 242.533 142.566 238.928M80.975 147.474L77.557 143.948L102.779 118.726L128 93.505L153.24 118.745L178.481 143.986L174.736 147.73L170.992 151.475L149.496 129.996L128 108.517L106.741 129.759C95.049 141.441 85.238 151 84.938 151C84.638 151 82.854 149.413 80.975 147.474" />
    <glyph glyph-name="circle-down"
      unicode="&#xEA14;"
      horiz-adv-x="256" d="M114.5 249.83C68.194 244.57 28.384 213.075 12.647 169.253C-4.227 122.261 9.627 68.791 47.15 36.083C104.908 -14.262 193.643 -0.484 232.96 64.933C261.756 112.846 254.402 174.291 215.135 213.855C194.382 234.765 169.464 246.699 139.789 249.94C128.857 251.133 125.863 251.12 114.5 249.83M142.566 238.928C180.027 233.717 211.616 211.023 228.07 177.5C238.201 156.86 241.918 134.932 238.928 113.434C233.756 76.256 210.947 44.506 177.283 27.627C123.585 0.703 57.015 22.353 29.249 75.771C9.741 113.302 12.132 155.815 35.747 191.328C42.214 201.052 55.72 214.37 66 221.16C88.458 235.991 116.646 242.533 142.566 238.928M123 163.018L123 123.036L99.01 122.768L75.02 122.5L101.26 86.274C115.692 66.35 127.725 50.049 128 50.049C128.275 50.049 140.308 66.35 154.74 86.274L180.98 122.5L156.99 122.768L133 123.036L133 163.018L133 203L128 203L123 203L123 163.018M156.305 106.714C154.212 103.807 147.1 93.93 140.5 84.765C133.9 75.599 128.275 68.093 128 68.083C127.725 68.074 122.1 75.579 115.5 84.761C108.9 93.942 101.788 103.828 99.695 106.728L95.89 112L128 112L160.11 112L156.305 106.714" />
    <glyph glyph-name="circle-in"
      unicode="&#xEA15;"
      horiz-adv-x="256" d="M149.273 217.969C125.049 215.422 99.636 200.079 85.735 179.609C81.296 173.072 81.297 173.065 88.132 169.459C90.702 168.104 90.846 168.194 94.232 173.285C101.925 184.852 114.007 194.691 128.5 201.191C139.386 206.073 146.302 207.402 161 207.436C171.072 207.459 175.063 207.02 181.548 205.177C207.522 197.796 229.852 175.459 237.16 149.548C240.408 138.029 240.408 117.971 237.16 106.452C231.248 85.491 215.158 66.211 195.5 56.534C182.171 49.972 175.976 48.602 160 48.686C141.23 48.784 129.188 52.356 115 62.033C107.916 66.864 98.66 76.086 94.241 82.715C90.846 87.806 90.701 87.896 88.132 86.541C81.297 82.935 81.294 82.925 85.748 76.408C96.408 60.805 114.749 47.25 132.877 41.575C165.053 31.502 200.034 40.294 224.288 64.547C241.443 81.702 250.285 103.533 250.191 128.5C250.097 153.206 241.288 174.368 223.828 191.828C208.918 206.737 190.994 215.449 170.026 217.978C160.797 219.091 159.946 219.091 149.273 217.969M150.737 169.271L146.994 165.528L163.236 149.264L179.477 133L95.239 133L11 133L11 128L11 123L95.239 123L179.477 123L163.22 106.721L146.964 90.441L150.757 86.737L154.55 83.033L177.019 105.52L199.489 128.006L176.985 150.51L154.481 173.014L150.737 169.271" />
    <glyph glyph-name="circle-left-10"
      unicode="&#xEA16;"
      horiz-adv-x="256" d="M114.5 249.83C68.194 244.57 28.384 213.075 12.647 169.253C-4.227 122.261 9.627 68.791 47.15 36.083C104.908 -14.262 193.643 -0.484 232.96 64.933C261.756 112.846 254.402 174.291 215.135 213.855C194.382 234.765 169.464 246.699 139.789 249.94C128.857 251.133 125.863 251.12 114.5 249.83M142.566 238.928C180.027 233.717 211.616 211.023 228.07 177.5C238.201 156.86 241.918 134.932 238.928 113.434C233.756 76.256 210.947 44.506 177.283 27.627C123.585 0.703 57.015 22.353 29.249 75.771C9.741 113.302 12.132 155.815 35.747 191.328C42.214 201.052 55.72 214.37 66 221.16C88.458 235.991 116.646 242.533 142.566 238.928M114.777 154.248C93.48 140.087 76.054 128.275 76.053 128C76.052 127.353 153.289 76 154.263 76C154.668 76 155 99.4 155 128C155 156.6 154.662 179.999 154.25 179.998C153.838 179.998 136.075 168.41 114.777 154.248M144 128C144 110.4 143.773 96 143.497 96C142.198 96 95.985 127.455 96.226 128.175C96.529 129.084 142.054 159.83 143.25 159.935C143.662 159.971 144 145.6 144 128" />
    <glyph glyph-name="circle-left-38"
      unicode="&#xEA17;"
      horiz-adv-x="256" d="M114.5 249.83C68.194 244.57 28.384 213.075 12.647 169.253C-4.227 122.261 9.627 68.791 47.15 36.083C104.908 -14.262 193.643 -0.484 232.96 64.933C261.756 112.846 254.402 174.291 215.135 213.855C194.382 234.765 169.464 246.699 139.789 249.94C128.857 251.133 125.863 251.12 114.5 249.83M142.566 238.928C180.027 233.717 211.616 211.023 228.07 177.5C238.201 156.86 241.918 134.932 238.928 113.434C233.756 76.256 210.947 44.506 177.283 27.627C123.585 0.703 57.015 22.353 29.249 75.771C9.741 113.302 12.132 155.815 35.747 191.328C42.214 201.052 55.72 214.37 66 221.16C88.458 235.991 116.646 242.533 142.566 238.928M118.497 152.997L93.51 127.995L118.748 102.757L143.986 77.519L147.73 81.264L151.475 85.008L129.996 106.504L108.517 128L129.977 149.477L151.437 170.954L148.022 174.477C146.144 176.415 144.355 178 144.046 178C143.738 178 132.241 166.749 118.497 152.997" />
    <glyph glyph-name="circle-left"
      unicode="&#xEA18;"
      horiz-adv-x="256" d="M114.5 249.83C68.194 244.57 28.384 213.075 12.647 169.253C-4.227 122.261 9.627 68.791 47.15 36.083C104.908 -14.262 193.643 -0.484 232.96 64.933C261.756 112.846 254.402 174.291 215.135 213.855C194.382 234.765 169.464 246.699 139.789 249.94C128.857 251.133 125.863 251.12 114.5 249.83M142.566 238.928C180.027 233.717 211.616 211.023 228.07 177.5C238.201 156.86 241.918 134.932 238.928 113.434C233.756 76.256 210.947 44.506 177.283 27.627C123.585 0.703 57.015 22.353 29.249 75.771C9.741 113.302 12.132 155.815 35.747 191.328C42.214 201.052 55.72 214.37 66 221.16C88.458 235.991 116.646 242.533 142.566 238.928M86.281 154.801C66.361 140.336 50.063 128.275 50.063 128C50.063 127.725 66.361 115.664 86.281 101.199L122.5 74.897L122.768 98.949L123.036 123L163.018 123L203 123L203 128L203 133L163.018 133L123.036 133L122.768 157.051L122.5 181.103L86.281 154.801M111.775 112.113L111.5 96.227L89.789 111.863C77.847 120.463 68.077 127.725 68.077 128C68.077 128.275 77.847 135.537 89.789 144.137L111.5 159.773L111.775 143.887C111.926 135.149 111.926 120.851 111.775 112.113" />
    <glyph glyph-name="circle-out"
      unicode="&#xEA19;"
      horiz-adv-x="256" d="M149.273 217.969C125.049 215.422 99.636 200.079 85.735 179.609C81.296 173.072 81.297 173.065 88.132 169.459C90.702 168.104 90.846 168.194 94.232 173.285C101.925 184.852 114.007 194.691 128.5 201.191C139.386 206.073 146.302 207.402 161 207.436C171.072 207.459 175.063 207.02 181.548 205.177C207.522 197.796 229.852 175.459 237.16 149.548C240.408 138.029 240.408 117.971 237.16 106.452C231.248 85.491 215.158 66.211 195.5 56.534C182.171 49.972 175.976 48.602 160 48.686C141.23 48.784 129.188 52.356 115 62.033C107.916 66.864 98.66 76.086 94.241 82.715C90.846 87.806 90.701 87.896 88.132 86.541C81.297 82.935 81.294 82.925 85.748 76.408C96.408 60.805 114.749 47.25 132.877 41.575C165.053 31.502 200.034 40.294 224.288 64.547C241.443 81.702 250.285 103.533 250.191 128.5C250.097 153.206 241.288 174.368 223.828 191.828C208.918 206.737 190.994 215.449 170.026 217.978C160.797 219.091 159.946 219.091 149.273 217.969M30.983 150.483L8.517 128L30.983 105.517L53.45 83.033L57.243 86.737L61.036 90.441L44.78 106.721L28.523 123L99.761 123L171 123L171 128L171 133L99.761 133L28.523 133L44.78 149.279L61.036 165.559L57.243 169.263L53.45 172.967L30.983 150.483" />
    <glyph glyph-name="circle-right-09"
      unicode="&#xEA1A;"
      horiz-adv-x="256" d="M114.5 249.83C68.194 244.57 28.384 213.075 12.647 169.253C-4.227 122.261 9.627 68.791 47.15 36.083C104.908 -14.262 193.643 -0.484 232.96 64.933C261.756 112.846 254.402 174.291 215.135 213.855C194.382 234.765 169.464 246.699 139.789 249.94C128.857 251.133 125.863 251.12 114.5 249.83M142.566 238.928C180.027 233.717 211.616 211.023 228.07 177.5C238.201 156.86 241.918 134.932 238.928 113.434C233.756 76.256 210.947 44.506 177.283 27.627C123.585 0.703 57.015 22.353 29.249 75.771C9.741 113.302 12.132 155.815 35.747 191.328C42.214 201.052 55.72 214.37 66 221.16C88.458 235.991 116.646 242.533 142.566 238.928M101 128C101 99.4 101.332 76 101.737 76C102.71 76 179.947 127.353 179.947 128C179.947 128.647 102.71 180 101.737 180C101.332 180 101 156.6 101 128M136.503 144.339C149.427 135.726 160 128.373 160 128C160 127.334 113.492 96 112.503 96C112.227 96 112 110.4 112 128C112 145.6 112.227 160 112.503 160C112.78 160 123.58 152.953 136.503 144.339" />
    <glyph glyph-name="circle-right-37"
      unicode="&#xEA1B;"
      horiz-adv-x="256" d="M114.5 249.83C68.194 244.57 28.384 213.075 12.647 169.253C-4.227 122.261 9.627 68.791 47.15 36.083C104.908 -14.262 193.643 -0.484 232.96 64.933C261.756 112.846 254.402 174.291 215.135 213.855C194.382 234.765 169.464 246.699 139.789 249.94C128.857 251.133 125.863 251.12 114.5 249.83M142.566 238.928C180.027 233.717 211.616 211.023 228.07 177.5C238.201 156.86 241.918 134.932 238.928 113.434C233.756 76.256 210.947 44.506 177.283 27.627C123.585 0.703 57.015 22.353 29.249 75.771C9.741 113.302 12.132 155.815 35.747 191.328C42.214 201.052 55.72 214.37 66 221.16C88.458 235.991 116.646 242.533 142.566 238.928M107.978 174.477L104.563 170.954L126.023 149.477L147.483 128L126.004 106.504L104.525 85.008L108.27 81.264L112.014 77.519L137.252 102.757L162.49 127.995L137.503 152.997C123.759 166.749 112.262 178 111.954 178C111.645 178 109.856 176.415 107.978 174.477" />
    <glyph glyph-name="circle-right"
      unicode="&#xEA1C;"
      horiz-adv-x="256" d="M114.5 249.83C68.194 244.57 28.384 213.075 12.647 169.253C-4.227 122.261 9.627 68.791 47.15 36.083C104.908 -14.262 193.643 -0.484 232.96 64.933C261.756 112.846 254.402 174.291 215.135 213.855C194.382 234.765 169.464 246.699 139.789 249.94C128.857 251.133 125.863 251.12 114.5 249.83M142.566 238.928C180.027 233.717 211.616 211.023 228.07 177.5C238.201 156.86 241.918 134.932 238.928 113.434C233.756 76.256 210.947 44.506 177.283 27.627C123.585 0.703 57.015 22.353 29.249 75.771C9.741 113.302 12.132 155.815 35.747 191.328C42.214 201.052 55.72 214.37 66 221.16C88.458 235.991 116.646 242.533 142.566 238.928M133 157.05L133 133L93 133L53 133L53 128L53 123L92.982 123L132.964 123L133.232 98.946L133.5 74.892L169.713 101.196C189.63 115.663 205.926 127.725 205.926 128C205.927 128.464 137.44 178.528 134.381 180.3C133.222 180.971 133 177.226 133 157.05M171.235 140.5C180.401 133.9 187.899 128.275 187.899 128C187.899 127.725 180.401 122.1 171.235 115.5C162.07 108.9 152.193 101.788 149.286 99.695L144 95.89L144 128L144 160.11L149.286 156.305C152.193 154.212 162.07 147.1 171.235 140.5" />
    <glyph glyph-name="circle-simple-down"
      unicode="&#xEA1D;"
      horiz-adv-x="256" d="M114.5 249.83C68.194 244.57 28.384 213.075 12.647 169.253C-4.227 122.261 9.627 68.791 47.15 36.083C104.908 -14.262 193.643 -0.484 232.96 64.933C261.756 112.846 254.402 174.291 215.135 213.855C194.382 234.765 169.464 246.699 139.789 249.94C128.857 251.133 125.863 251.12 114.5 249.83M142.566 238.928C180.027 233.717 211.616 211.023 228.07 177.5C238.201 156.86 241.918 134.932 238.928 113.434C233.756 76.256 210.947 44.506 177.283 27.627C123.585 0.703 57.015 22.353 29.249 75.771C9.741 113.302 12.132 155.815 35.747 191.328C42.214 201.052 55.72 214.37 66 221.16C88.458 235.991 116.646 242.533 142.566 238.928M123 139.76L123 87.52L104.221 106.279L85.443 125.038L81.808 121.269L78.174 117.5L102.941 92.313L127.708 67.126L152.825 92.301L177.942 117.475L174.25 121.256L170.557 125.038L151.779 106.279L133 87.52L133 139.76L133 192L128 192L123 192L123 139.76" />
    <glyph glyph-name="circle-simple-left"
      unicode="&#xEA1E;"
      horiz-adv-x="256" d="M114.5 249.83C68.194 244.57 28.384 213.075 12.647 169.253C-4.227 122.261 9.627 68.791 47.15 36.083C104.908 -14.262 193.643 -0.484 232.96 64.933C261.756 112.846 254.402 174.291 215.135 213.855C194.382 234.765 169.464 246.699 139.789 249.94C128.857 251.133 125.863 251.12 114.5 249.83M142.566 238.928C180.027 233.717 211.616 211.023 228.07 177.5C238.201 156.86 241.918 134.932 238.928 113.434C233.756 76.256 210.947 44.506 177.283 27.627C123.585 0.703 57.015 22.353 29.249 75.771C9.741 113.302 12.132 155.815 35.747 191.328C42.214 201.052 55.72 214.37 66 221.16C88.458 235.991 116.646 242.533 142.566 238.928M92.483 152.983L67.515 128L92.483 103.017L117.451 78.034L121.244 81.739L125.038 85.443L106.279 104.221L87.52 123L139.76 123L192 123L192 128L192 133L139.76 133L87.52 133L106.279 151.779L125.038 170.557L121.244 174.261L117.451 177.966L92.483 152.983" />
    <glyph glyph-name="circle-simple-right"
      unicode="&#xEA1F;"
      horiz-adv-x="256" d="M114.5 249.83C68.194 244.57 28.384 213.075 12.647 169.253C-4.227 122.261 9.627 68.791 47.15 36.083C104.908 -14.262 193.643 -0.484 232.96 64.933C261.756 112.846 254.402 174.291 215.135 213.855C194.382 234.765 169.464 246.699 139.789 249.94C128.857 251.133 125.863 251.12 114.5 249.83M142.566 238.928C180.027 233.717 211.616 211.023 228.07 177.5C238.201 156.86 241.918 134.932 238.928 113.434C233.756 76.256 210.947 44.506 177.283 27.627C123.585 0.703 57.015 22.353 29.249 75.771C9.741 113.302 12.132 155.815 35.747 191.328C42.214 201.052 55.72 214.37 66 221.16C88.458 235.991 116.646 242.533 142.566 238.928M134.737 174.27L130.993 170.526L149.737 151.763L168.48 133L116.24 133L64 133L64 128L64 123L116.24 123L168.48 123L149.721 104.221L130.962 85.443L134.756 81.739L138.549 78.034L163.52 103.02L188.49 128.005L163.485 153.01L138.481 178.014L134.737 174.27" />
    <glyph glyph-name="circle-simple-up"
      unicode="&#xEA20;"
      horiz-adv-x="256" d="M114.5 249.83C68.194 244.57 28.384 213.075 12.647 169.253C-4.227 122.261 9.627 68.791 47.15 36.083C104.908 -14.262 193.643 -0.484 232.96 64.933C261.756 112.846 254.402 174.291 215.135 213.855C194.382 234.765 169.464 246.699 139.789 249.94C128.857 251.133 125.863 251.12 114.5 249.83M142.566 238.928C180.027 233.717 211.616 211.023 228.07 177.5C238.201 156.86 241.918 134.932 238.928 113.434C233.756 76.256 210.947 44.506 177.283 27.627C123.585 0.703 57.015 22.353 29.249 75.771C9.741 113.302 12.132 155.815 35.747 191.328C42.214 201.052 55.72 214.37 66 221.16C88.458 235.991 116.646 242.533 142.566 238.928M102.752 163.577L78.005 138.462L81.739 134.727L85.474 130.993L104.237 149.737L123 168.48L123 116.24L123 64L128 64L133 64L133 116.24L133 168.48L151.779 149.721L170.557 130.962L174.25 134.744L177.942 138.525L152.762 163.763C138.913 177.643 127.564 188.931 127.541 188.846C127.519 188.761 116.364 177.39 102.752 163.577" />
    <glyph glyph-name="circle-up-11"
      unicode="&#xEA21;"
      horiz-adv-x="256" d="M114.5 249.83C68.194 244.57 28.384 213.075 12.647 169.253C-4.227 122.261 9.627 68.791 47.15 36.083C104.908 -14.262 193.643 -0.484 232.96 64.933C261.756 112.846 254.402 174.291 215.135 213.855C194.382 234.765 169.464 246.699 139.789 249.94C128.857 251.133 125.863 251.12 114.5 249.83M142.566 238.928C180.027 233.717 211.616 211.023 228.07 177.5C238.201 156.86 241.918 134.932 238.928 113.434C233.756 76.256 210.947 44.506 177.283 27.627C123.585 0.703 57.015 22.353 29.249 75.771C9.741 113.302 12.132 155.815 35.747 191.328C42.214 201.052 55.72 214.37 66 221.16C88.458 235.991 116.646 242.533 142.566 238.928M101.753 130.223L76.006 91.5L102.003 91.233C116.301 91.087 139.699 91.087 153.997 91.233L179.994 91.5L154.247 130.223C140.086 151.52 128.275 168.946 128 168.946C127.725 168.946 115.914 151.52 101.753 130.223M144.25 126.205C152.912 113.144 160 102.13 160 101.729C160 101.328 145.6 101 128 101C110.4 101 96 101.328 96 101.729C96 102.698 127.357 149.951 128 149.951C128.275 149.951 135.588 139.265 144.25 126.205" />
    <glyph glyph-name="circle-up-39"
      unicode="&#xEA22;"
      horiz-adv-x="256" d="M114.5 249.83C68.194 244.57 28.384 213.075 12.647 169.253C-4.227 122.261 9.627 68.791 47.15 36.083C104.908 -14.262 193.643 -0.484 232.96 64.933C261.756 112.846 254.402 174.291 215.135 213.855C194.382 234.765 169.464 246.699 139.789 249.94C128.857 251.133 125.863 251.12 114.5 249.83M142.566 238.928C180.027 233.717 211.616 211.023 228.07 177.5C238.201 156.86 241.918 134.932 238.928 113.434C233.756 76.256 210.947 44.506 177.283 27.627C123.585 0.703 57.015 22.353 29.249 75.771C9.741 113.302 12.132 155.815 35.747 191.328C42.214 201.052 55.72 214.37 66 221.16C88.458 235.991 116.646 242.533 142.566 238.928M102.505 137.005L77.524 112.009L81.266 108.267L85.008 104.525L106.504 126.004L128 147.483L149.496 126.004L170.992 104.525L174.734 108.267L178.476 112.009L153.495 137.005C139.756 150.752 128.283 162 128 162C127.717 162 116.244 150.752 102.505 137.005" />
    <glyph glyph-name="circle-up"
      unicode="&#xEA23;"
      horiz-adv-x="256" d="M114.5 249.83C68.194 244.57 28.384 213.075 12.647 169.253C-4.227 122.261 9.627 68.791 47.15 36.083C104.908 -14.262 193.643 -0.484 232.96 64.933C261.756 112.846 254.402 174.291 215.135 213.855C194.382 234.765 169.464 246.699 139.789 249.94C128.857 251.133 125.863 251.12 114.5 249.83M142.566 238.928C180.027 233.717 211.616 211.023 228.07 177.5C238.201 156.86 241.918 134.932 238.928 113.434C233.756 76.256 210.947 44.506 177.283 27.627C123.585 0.703 57.015 22.353 29.249 75.771C9.741 113.302 12.132 155.815 35.747 191.328C42.214 201.052 55.72 214.37 66 221.16C88.458 235.991 116.646 242.533 142.566 238.928M101.26 169.726L75.02 133.5L99.01 133.232L123 132.964L123 92.982L123 53L128 53L133 53L133 92.982L133 132.964L156.964 133.232L180.927 133.5L154.714 169.73C140.296 189.657 128.275 205.958 128 205.956C127.725 205.953 115.692 189.65 101.26 169.726M144.153 166.197L159.805 144.5L143.903 144.225C135.156 144.074 120.844 144.074 112.097 144.225L96.195 144.5L111.847 166.197C120.456 178.131 127.725 187.895 128 187.895C128.275 187.895 135.544 178.131 144.153 166.197" />
    <glyph glyph-name="circuit-round"
      unicode="&#xEA24;"
      horiz-adv-x="256" d="M65.74 217.245L62.03 213.446L77.515 197.985C86.032 189.482 93 182.181 93 181.762C93 181.343 87.222 181 80.16 181C55.894 181 39.835 174.269 24.182 157.536C11.882 144.387 5.912 129.157 5.744 110.5C5.618 96.586 7.056 89.775 12.498 78.5C21.949 58.917 40.116 44.157 60.713 39.326C67.794 37.666 73.894 37.5 128 37.5C182.106 37.5 188.206 37.666 195.287 39.326C215.412 44.047 233.874 58.799 243.06 77.5C248.58 88.737 250.286 96.353 250.229 109.5C250.145 128.83 244.49 143.754 232.204 157.072C216.432 174.169 200.341 181 175.84 181C168.778 181 163 181.332 163 181.739C163 182.145 169.983 189.471 178.518 198.018L194.036 213.559L190.243 217.263L186.45 220.967L163.983 198.483L141.517 176L163.983 153.517L186.45 131.033L190.243 134.737L194.036 138.441L178.518 153.982C169.983 162.529 163 169.918 163 170.401C163 170.888 169.124 171.049 176.75 170.761C197.957 169.962 208.653 165.539 222.109 152.004C236.675 137.353 242.629 118.044 238.937 97.434C237.172 87.581 230.175 74.483 222.836 67.293C219.351 63.879 215.273 60.142 213.773 58.988C209.068 55.37 196.773 50.283 189.918 49.118C180.921 47.59 75.132 47.583 66.082 49.111C62.462 49.722 55.9 51.916 51.5 53.987C19.878 68.868 7.178 105.408 22.646 137C29.333 150.656 45.134 163.981 60 168.499C66.043 170.336 93 171.89 93 170.401C93 169.918 86.017 162.529 77.482 153.982L61.964 138.441L65.757 134.737L69.55 131.033L92.019 153.52L114.489 176.006L91.969 198.525L69.45 221.045L65.74 217.245" />
    <glyph glyph-name="circuit"
      unicode="&#xEA25;"
      horiz-adv-x="256" d="M65.74 217.245L62.03 213.446L77.515 197.985C86.032 189.482 93 182.181 93 181.762C93 181.343 73.197 181 48.993 181L4.987 181L5.243 109.25L5.5 37.5L128 37.5L250.5 37.5L250.757 109.25L251.013 181L207.007 181C182.803 181 163 181.332 163 181.739C163 182.145 169.983 189.471 178.518 198.018L194.036 213.559L190.243 217.263L186.45 220.967L163.983 198.483L141.517 176L163.983 153.517L186.45 131.033L190.243 134.737L194.036 138.441L178.518 153.982C169.983 162.529 163 169.855 163 170.261C163 170.668 180.325 171 201.5 171L240 171L240 109.5L240 48L128 48L16 48L16 109.5L16 171L54.5 171C75.675 171 93 170.668 93 170.261C93 169.855 86.017 162.529 77.482 153.982L61.964 138.441L65.757 134.737L69.55 131.033L92.019 153.52L114.489 176.006L91.969 198.525L69.45 221.045L65.74 217.245" />
    <glyph glyph-name="cloud-download-93"
      unicode="&#xEA26;"
      horiz-adv-x="256" d="M107 249.308C75.059 243.652 47.635 217.721 40.047 186C38.929 181.325 38.011 176.549 38.007 175.386C38.002 173.828 36.882 172.836 33.75 171.616C23.821 167.749 13.069 156.68 9.057 146.197C1.883 127.45 5.767 108.074 19.444 94.379C31.579 82.228 39.298 80 69.262 80L91.105 80L90.802 85.25L90.5 90.5L66.5 91C43.685 91.475 42.278 91.617 38 93.871C27.173 99.574 19.799 108.49 17.369 118.816C15.493 126.786 15.675 132.098 18.067 139.199C22.115 151.215 29.864 159.049 41.625 163.014L47.749 165.08L48.434 172.022C52.062 208.842 81.177 237.292 117.684 239.69C144.613 241.459 169.346 229.253 185.033 206.452C191.28 197.373 195.586 184.85 196.848 172.094L197.5 165.5L205 164.858C217.572 163.782 227.472 157.979 234.021 147.847C245.822 129.588 238.818 104.83 218.881 94.333C213.503 91.502 213.485 91.5 189.5 91L165.5 90.5L165.198 85.25L164.895 80L186.738 80C216.702 80 224.421 82.228 236.556 94.379C255.327 113.175 255.323 142.791 236.547 161.621C228.631 169.559 223.083 172.416 209.75 175.419C208.003 175.812 207 176.692 207 177.831C207 180.811 203.24 194.201 200.911 199.515C194.88 213.275 182.464 227.917 169.604 236.436C159.122 243.379 150.962 246.729 138.78 249.09C127.237 251.328 118.733 251.386 107 249.308M123 88.761L123 28.523L106.721 44.78L90.441 61.036L86.737 57.243L83.033 53.45L105.517 30.983L128 8.517L150.483 30.983L172.967 53.45L169.263 57.243L165.559 61.036L149.279 44.78L133 28.523L133 88.761L133 149L128 149L123 149L123 88.761" />
    <glyph glyph-name="cloud-download-95"
      unicode="&#xEA27;"
      horiz-adv-x="256" d="M107.5 217.393C81.151 212.691 58.258 195.246 45.963 170.5C42.032 162.587 38 149.176 38 144.011C38 141.77 37.164 140.953 32.792 138.921C8.973 127.849 -1.252 99.076 10.146 75.194C13.837 67.46 23.48 57.301 30.5 53.752C40.695 48.596 44.658 48 68.734 48L91.105 48L90.802 53.25L90.5 58.5L67.5 59.031C42.038 59.618 39.73 60.092 30.972 66.52C22.194 72.964 16 85.467 16 96.742C16 102.344 19.343 112.184 23.102 117.648C27.175 123.568 33.929 128.48 41.425 130.975L47.719 133.07L48.346 139.785C51.196 170.312 72.054 195.887 101.5 204.959C105.58 206.216 112.679 207.358 118.518 207.696C158.412 210.003 192.585 180.427 196.553 140.158L197.234 133.243L204.867 132.785C212.585 132.322 219.789 129.599 226 124.797C233.694 118.848 240 106.149 240 96.605C240 85.468 233.761 72.931 225.028 66.52C216.27 60.092 213.962 59.618 188.5 59.031L165.5 58.5L165.198 53.25L164.895 48L187.266 48C211.342 48 215.305 48.596 225.5 53.752C232.565 57.324 242.162 67.458 245.902 75.294C254.086 92.444 251.231 113.368 238.773 127.52C231.586 135.685 222.618 140.625 209.997 143.37C207.76 143.856 207.258 144.903 205.284 153.207C197.667 185.232 171.069 210.831 138.941 217.059C127.349 219.306 118.735 219.398 107.5 217.393M123 112.764L123 76.528L109.501 89.999L96.003 103.469L92.261 99.728L88.52 95.986L108.26 76.246L128 56.506L147.74 76.246L167.48 95.986L163.739 99.728L159.997 103.469L146.499 89.999L133 76.528L133 112.764L133 149L128 149L123 149L123 112.764" />
    <glyph glyph-name="cloud-refresh"
      unicode="&#xEA28;"
      horiz-adv-x="256" d="M109 212.368C89.567 208.631 74.468 200.464 60.874 186.337C48.921 173.916 41.398 159.384 38.724 143.551L37.46 136.07L31.164 132.924C13.638 124.166 2.924 102.956 6.035 83.174C8.782 65.711 22.224 50.144 39.091 44.895C44.859 43.099 49.523 43 128 43C206.477 43 211.141 43.099 216.909 44.895C239.162 51.821 253.813 75.395 249.981 98.111C246.757 117.224 231.133 133.871 213.223 137.275L207.253 138.41L205.526 146.445C200.112 171.638 183.671 192.689 160.213 204.461C148.742 210.218 140.266 212.159 125 212.525C117.575 212.703 110.375 212.632 109 212.368M141.5 200.447C161.244 195.192 180.008 179.819 189.037 161.5C193.511 152.424 195.563 145.211 196.565 135.036L197.258 128L201.919 128C229.979 128 248.295 98.509 235.739 73.545C232.481 67.066 223.296 58.652 216.493 55.913L210.5 53.5L128 53.5L45.5 53.5L39.753 55.821C31.732 59.06 23.83 66.569 19.774 74.807C14.98 84.545 14.98 96.446 19.774 106.189C25.081 116.974 31.86 122.33 46.75 127.503C47.438 127.742 48 129.487 48 131.381C48 137.447 50.798 149.702 53.833 156.925C59.409 170.197 72.085 184.774 84.5 192.193C91.306 196.26 102.817 200.612 110.387 201.98C117.316 203.232 134.153 202.402 141.5 200.447M160 160.689C160 152.173 159.439 151.428 155.367 154.533C139.446 166.677 115.541 166.368 99.921 153.816C90.477 146.227 83 132.122 83 121.895L83 118L87.981 118C92.618 118 92.999 118.19 93.497 120.75C95.843 132.808 97.769 136.727 104.701 143.544C111.014 149.754 118.023 152.437 128.018 152.471C135.625 152.497 137.237 152.155 143.091 149.275C146.696 147.501 150.47 145.138 151.478 144.025C153.305 142.005 153.286 142 143.655 142L134 142L134 137.117L134 132.235L141.25 131.641C145.238 131.314 153 130.924 158.5 130.773L168.5 130.5L169.12 137C169.461 140.575 170.053 148.338 170.437 154.25L171.134 165L167.149 165C164.957 165 162.452 165.273 161.582 165.607C160.257 166.115 160 165.316 160 160.689M162.667 116.333C162.3 115.967 161.996 114.054 161.99 112.083C161.967 103.545 153.217 91.773 142.838 86.316C138.078 83.814 136.471 83.509 128 83.506C117.527 83.501 112.558 85.105 106.051 90.592L102.601 93.5L112.051 94L121.5 94.5L121.802 99.75L122.105 105L104.696 105L87.287 105L86.575 88.515C86.184 79.448 86.146 71.573 86.491 71.015C86.836 70.457 89.341 70 92.059 70L97 70L97 76.911L97 83.822L103.438 79.506C113.723 72.608 127.23 70.346 139.32 73.495C147.93 75.738 152.799 78.614 159.748 85.563C167.321 93.136 171.933 102.171 172.734 111.002L173.278 117L168.306 117C165.571 117 163.033 116.7 162.667 116.333" />
    <glyph glyph-name="cloud-upload-94"
      unicode="&#xEA29;"
      horiz-adv-x="256" d="M109 244.368C89.579 240.633 74.466 232.463 60.897 218.362C49.217 206.223 42.546 193.516 39.226 177.085L37.358 167.84L33.077 165.923C14.467 157.591 2.806 135.708 6.035 115.174C8.782 97.711 22.224 82.144 39.091 76.895C44.319 75.267 48.412 75 68.089 75L91 75L91 79.893L91 84.786L68.25 85.219C47.651 85.611 44.957 85.865 39.753 87.897C31.758 91.02 23.872 98.483 19.774 106.807C16.809 112.83 16.5 114.308 16.5 122.479C16.5 130.524 16.838 132.203 19.62 138C24.728 148.642 33.023 155.33 46.056 159.313C47.192 159.66 47.948 162.312 48.857 169.14C51.205 186.776 56.532 197.969 68.84 211.124C77.78 220.681 87.287 226.784 100 231.128C108.712 234.105 110.537 234.375 122 234.388C136.627 234.404 143.41 232.89 155.681 226.871C171.097 219.309 185.873 203.588 191.851 188.388C194.305 182.15 197 169.481 197 164.186L197 160.289L204.25 159.706C215.01 158.842 220.263 156.621 227.454 149.894C236.378 141.546 239.442 134.559 239.475 122.479C239.498 114.282 239.201 112.85 236.226 106.807C232.128 98.483 224.243 91.02 216.247 87.897C211.043 85.865 208.349 85.611 187.75 85.219L165 84.786L165 79.893L165 75L187.911 75C207.588 75 211.681 75.267 216.909 76.895C239.214 83.837 253.822 107.342 249.981 130.111C247.702 143.622 238.182 157.601 226.662 164.352C224.088 165.861 218.734 167.92 214.765 168.928L207.547 170.761L205.407 179.96C198.659 208.958 175.985 233.076 147.5 241.556C140.077 243.766 136.135 244.289 125 244.542C117.575 244.711 110.375 244.632 109 244.368M105.521 150.343L83.542 127.992L87.273 124.26L91.005 120.528L107.002 136.502L123 152.477L123 84.238L123 16L128 16L133 16L133 84.238L133 152.477L148.998 136.502L164.995 120.528L168.727 124.26L172.458 127.992L150.479 150.343C138.391 162.637 128.275 172.695 128 172.695C127.725 172.695 117.609 162.637 105.521 150.343" />
    <glyph glyph-name="cloud-upload-96"
      unicode="&#xEA2A;"
      horiz-adv-x="256" d="M107.5 217.393C81.151 212.691 58.258 195.246 45.963 170.5C42.032 162.587 38 149.176 38 144.011C38 141.77 37.164 140.953 32.792 138.921C8.973 127.849 -1.252 99.076 10.146 75.194C13.837 67.46 23.48 57.301 30.5 53.752C40.695 48.596 44.658 48 68.734 48L91.105 48L90.802 53.25L90.5 58.5L67.5 59.031C42.038 59.618 39.73 60.092 30.972 66.52C22.194 72.964 16 85.467 16 96.742C16 102.344 19.343 112.184 23.102 117.648C27.175 123.568 33.929 128.48 41.425 130.975L47.719 133.07L48.346 139.785C51.196 170.312 72.054 195.887 101.5 204.959C105.58 206.216 112.679 207.358 118.518 207.696C158.412 210.003 192.585 180.427 196.553 140.158L197.234 133.243L204.867 132.785C212.585 132.322 219.789 129.599 226 124.797C233.694 118.848 240 106.149 240 96.605C240 85.468 233.761 72.931 225.028 66.52C216.27 60.092 213.962 59.618 188.5 59.031L165.5 58.5L165.198 53.25L164.895 48L187.266 48C211.342 48 215.305 48.596 225.5 53.752C232.565 57.324 242.162 67.458 245.902 75.294C254.086 92.444 251.231 113.368 238.773 127.52C231.586 135.685 222.618 140.625 209.997 143.37C207.76 143.856 207.258 144.903 205.284 153.207C197.667 185.232 171.069 210.831 138.941 217.059C127.349 219.306 118.735 219.398 107.5 217.393M108.022 136.843L88.545 116.989L92.274 113.26L96.003 109.531L109.501 123.001L123 136.472L123 100.236L123 64L128 64L133 64L133 100.236L133 136.472L146.499 123.001L159.997 109.531L163.726 113.26L167.455 116.989L147.978 136.843C137.265 147.764 128.275 156.698 128 156.698C127.725 156.698 118.735 147.764 108.022 136.843" />
    <glyph glyph-name="compare"
      unicode="&#xEA2B;"
      horiz-adv-x="256" d="M59.978 174.478L56.564 170.955L75.522 151.978L94.48 133L52.74 133L11 133L11 128L11 123L52.74 123L94.48 123L75.503 104.003L56.527 85.007L60.27 81.263L64.014 77.519L89.252 102.757L114.49 127.995L89.503 152.997C75.759 166.749 64.262 178 63.954 178C63.645 178 61.856 176.415 59.978 174.478M166.497 152.997L141.51 127.995L166.748 102.757L191.986 77.519L195.73 81.263L199.473 85.007L180.497 104.003L161.52 123L203.26 123L245 123L245 128L245 133L203.26 133L161.52 133L180.478 151.978L199.436 170.955L196.022 174.478C194.144 176.415 192.355 178 192.046 178C191.738 178 180.241 166.749 166.497 152.997" />
    <glyph glyph-name="computer-upload"
      unicode="&#xEA2C;"
      horiz-adv-x="256" d="M105.237 224.738L82.991 202.475L86.732 198.735L90.472 194.994L106.736 211.236L123 227.477L123 185.739L123 144L128 144L133 144L133 185.739L133 227.477L149.279 211.22L165.559 194.964L169.263 198.757L172.967 202.55L150.725 224.775C138.492 236.999 128.259 247 127.984 247C127.708 247 117.473 236.982 105.237 224.738M5.683 234.35C5.307 233.974 5 194.367 5 146.333L5 59L128.005 59L251.011 59L250.755 146.75L250.5 234.5L224 234.5L197.5 234.5L197.198 229.25L196.895 224L218.448 224L240 224L240 146.5L240 69L128 69L16 69L16 146.5L16 224L37.552 224L59.105 224L58.802 229.25L58.5 234.5L32.433 234.766C18.096 234.913 6.059 234.725 5.683 234.35M123 26.5L123 16L96 16L69 16L69 10.492L69 4.984L127.75 5.242L186.5 5.5L186.802 10.75L187.105 16L160.052 16L133 16L133 26.5L133 37L128 37L123 37L123 26.5" />
    <glyph glyph-name="contrast"
      unicode="&#xEA2D;"
      horiz-adv-x="256" d="M33.483 152.983L8.515 128L33.483 103.017L58.451 78.034L62.244 81.739L66.038 85.443L47.279 104.221L28.52 123L67.76 123L107 123L107 128L107 133L67.76 133L28.52 133L47.279 151.779L66.038 170.557L62.244 174.261L58.451 177.966L33.483 152.983M193.737 174.27L189.993 170.526L208.737 151.763L227.48 133L188.24 133L149 133L149 128L149 123L188.24 123L227.48 123L208.721 104.221L189.962 85.443L193.756 81.739L197.549 78.034L222.52 103.02L247.49 128.005L222.485 153.01L197.481 178.014L193.737 174.27" />
    <glyph glyph-name="conversion"
      unicode="&#xEA2E;"
      horiz-adv-x="256" d="M145.728 238.261L141.989 234.522L176.739 199.761L211.489 165L108.245 165L5 165L5 160L5 155L120.746 155L236.491 155L193 198.5C169.08 222.425 149.499 242 149.488 242C149.476 242 147.784 240.317 145.728 238.261M62.981 57.519L106.454 14.037L110.248 17.742L114.042 21.447L79.276 56.224L44.511 91L147.755 91L251 91L251 96L251 101L135.254 101L19.509 101L62.981 57.519" />
    <glyph glyph-name="corner-down-round"
      unicode="&#xEA2F;"
      horiz-adv-x="256" d="M133.5 243.527C111.222 238.648 90.848 220.021 83.24 197.578L80.501 189.5L80.211 109.046L79.921 28.592L50.466 58.034L21.01 87.477L17.264 83.731L13.518 79.985L49.259 44.244L85 8.503L120.741 44.244L156.482 79.985L152.736 83.731L148.99 87.477L119.995 58.495L91 29.513L91 107.046C91 192.256 90.851 189.941 97.178 202.941C101.709 212.25 113.23 223.593 123 228.364C135.866 234.646 139.063 234.963 189.75 234.983L235 235L235 240L235 245L187.25 244.921C151.773 244.861 137.958 244.503 133.5 243.527" />
    <glyph glyph-name="corner-down"
      unicode="&#xEA30;"
      horiz-adv-x="256" d="M80 136.756L80 28.513L50.505 57.995L21.01 87.477L17.264 83.731L13.518 79.985L49.259 44.244L85 8.503L120.741 44.244L156.482 79.985L152.736 83.731L148.99 87.477L119.995 58.495L91 29.513L91 132.256L91 235L163 235L235 235L235 240L235 245L157.5 245L80 245L80 136.756" />
    <glyph glyph-name="corner-left-down"
      unicode="&#xEA31;"
      horiz-adv-x="256" d="M38.5 217L8.512 187L38.982 156.518L69.452 126.036L73.246 129.74L77.04 133.445L53.278 157.222L29.516 181L105.258 181L181 181L181 105.258L181 29.516L157.222 53.278L133.445 77.04L129.74 73.246L126.036 69.452L156.52 38.98L187.004 8.508L217.227 38.731L247.45 68.954L243.725 72.769L240 76.584L216.006 52.542L192.011 28.5L192.006 110.25L192 192L110.258 192L28.516 192L52.477 215.977L76.438 239.953L73.023 243.477C71.144 245.414 69.356 247 69.048 247C68.74 247 54.993 233.5 38.5 217" />
    <glyph glyph-name="corner-left-round"
      unicode="&#xEA32;"
      horiz-adv-x="256" d="M43.998 206.498L8.507 170.996L44.246 135.257L79.985 99.518L83.731 103.264L87.477 107.01L58.495 136.005L29.513 165L106.938 165C182.776 165 184.526 164.956 192.249 162.872C210.364 157.984 225.839 142.93 232.208 124C234.313 117.743 234.409 115.694 234.773 69.25L235.152 21L240.076 21L245 21L244.983 68.25C244.963 121.785 244.716 124.207 237.884 137.782C230.028 153.39 214.765 166.685 197.976 172.543L189.5 175.5L109.041 175.784L28.581 176.068L58.01 205.51L87.439 234.952L84.023 238.476C82.145 240.414 80.356 242 80.049 242C79.741 242 63.518 226.024 43.998 206.498" />
    <glyph glyph-name="corner-left"
      unicode="&#xEA33;"
      horiz-adv-x="256" d="M43.998 206.498L8.507 170.996L44.246 135.257L79.985 99.518L83.731 103.264L87.477 107.01L58.495 136.005L29.513 165L132.256 165L235 165L235 93L235 21L240 21L245 21L245 98.5L245 176L136.756 176L28.513 176L57.976 205.476L87.439 234.952L84.023 238.476C82.145 240.414 80.356 242 80.049 242C79.741 242 63.518 226.024 43.998 206.498" />
    <glyph glyph-name="corner-right-down"
      unicode="&#xEA34;"
      horiz-adv-x="256" d="M182.977 243.477L179.562 239.953L203.523 215.977L227.484 192L145.742 192L64 192L64 110.258L64 28.516L40.004 52.496L16.009 76.476L12.264 72.73L8.519 68.985L38.757 38.747L68.996 8.508L99.48 38.98L129.964 69.452L126.26 73.246L122.555 77.04L98.778 53.278L75 29.516L75 105.258L75 181L150.742 181L226.484 181L202.722 157.222L178.96 133.445L182.754 129.74L186.548 126.036L217.018 156.518L247.488 187L217.5 217C201.007 233.5 187.26 247 186.952 247C186.644 247 184.856 245.414 182.977 243.477" />
    <glyph glyph-name="corner-right-round"
      unicode="&#xEA35;"
      horiz-adv-x="256" d="M171.977 238.476L168.561 234.952L197.99 205.51L227.419 176.068L146.959 175.784L66.5 175.5L58.285 172.718C41.738 167.113 25.558 153.024 17.956 137.601C11.29 124.074 11.037 121.547 11.017 68.25L11 21L15.924 21L20.848 21L21.227 69.25C21.59 115.482 21.696 117.772 23.766 124C30.02 142.811 45.625 157.981 63.751 162.872C71.474 164.956 73.224 165 149.062 165L226.487 165L197.567 136.067L168.647 107.134L172.206 103.194L175.765 99.255L211.627 135.127L247.49 171L212 206.5C192.481 226.025 176.259 242 175.951 242C175.644 242 173.855 240.414 171.977 238.476" />
    <glyph glyph-name="corner-right"
      unicode="&#xEA36;"
      horiz-adv-x="256" d="M171.977 238.476L168.561 234.952L198.024 205.476L227.487 176L119.244 176L11 176L11 98.5L11 21L16 21L21 21L21 93L21 165L123.744 165L226.487 165L197.567 136.067L168.647 107.134L172.206 103.194L175.765 99.255L211.627 135.127L247.49 171L212 206.5C192.481 226.025 176.259 242 175.951 242C175.644 242 173.855 240.414 171.977 238.476" />
    <glyph glyph-name="corner-up-left"
      unicode="&#xEA37;"
      horiz-adv-x="256" d="M156.239 216.739L125.989 186.477L129.733 182.734L133.476 178.991L157.238 202.738L181 226.484L181 150.742L181 75L105.258 75L29.516 75L53.278 98.778L77.04 122.555L73.246 126.26L69.452 129.964L38.98 99.48L8.508 68.996L38.747 38.757L68.985 8.519L72.73 12.264L76.476 16.009L52.496 40.004L28.516 64L110.258 64L192 64L192.028 145.75L192.055 227.5L215.955 203.384L239.855 179.267L243.651 183.154L247.446 187.041L217.479 217.021C200.998 233.509 187.282 247 187 247C186.718 247 172.876 233.382 156.239 216.739" />
    <glyph glyph-name="corner-up-right"
      unicode="&#xEA38;"
      horiz-adv-x="256" d="M38.567 217.067L8.647 187.134L12.073 183.2L15.5 179.266L39.75 203.375L64 227.485L64 145.742L64 64L145.742 64L227.484 64L203.504 40.004L179.524 16.009L183.27 12.264L187.015 8.519L217.253 38.757L247.492 68.996L217.02 99.48L186.548 129.964L182.754 126.26L178.96 122.555L202.722 98.778L226.484 75L150.742 75L75 75L75 150.742L75 226.484L98.778 202.722L122.555 178.96L126.26 182.754L129.964 186.548L99.726 216.774C83.095 233.398 69.263 247 68.988 247C68.713 247 55.023 233.53 38.567 217.067" />
    <glyph glyph-name="corner-up-round"
      unicode="&#xEA39;"
      horiz-adv-x="256" d="M135.006 211.506L99.522 176.011L103.266 172.267L107.01 168.523L136.005 197.505L165 226.487L165 148.954C165 63.578 165.152 65.912 158.732 53C154.042 43.567 142.671 32.359 133 27.636C120.382 21.474 115.552 21 65.412 21L21 21L21 16L21 11L68.053 11C121.204 11 123.491 11.236 137.733 18.18C153.178 25.71 167.085 41.653 172.717 58.285L175.499 66.5L175.789 146.954L176.079 227.408L205.534 197.966L234.99 168.523L238.734 172.267L242.478 176.011L206.994 211.506C187.478 231.028 171.281 247 171 247C170.719 247 154.522 231.028 135.006 211.506" />
    <glyph glyph-name="corner-up"
      unicode="&#xEA3A;"
      horiz-adv-x="256" d="M135.006 211.506L99.522 176.011L103.266 172.267L107.01 168.523L136.005 197.505L165 226.487L165 123.744L165 21L93 21L21 21L21 16L21 11L98.5 11L176 11L176 119.244L176 227.487L205.495 198.005L234.99 168.523L238.734 172.267L242.478 176.011L206.994 211.506C187.478 231.028 171.281 247 171 247C170.719 247 154.522 231.028 135.006 211.506" />
    <glyph glyph-name="cross-down"
      unicode="&#xEA3B;"
      horiz-adv-x="256" d="M122.758 189.25L122.5 133.5L63.75 133.242L5 132.984L5 128L5 123.016L63.75 122.758L122.5 122.5L122.76 75.5L123.019 28.5L101.514 49.987L80.008 71.475L76.263 67.73L72.519 63.986L100.259 36.245L128 8.505L155.741 36.245L183.481 63.986L179.737 67.73L175.992 71.475L154.438 49.987L132.884 28.5L133.031 80.5C133.112 109.1 133.139 157.812 133.089 188.75L133 245L128.008 245L123.017 245L122.758 189.25M165 128L165 123L208 123L251 123L251 128L251 133L208 133L165 133L165 128" />
    <glyph glyph-name="cross-horizontal"
      unicode="&#xEA3C;"
      horiz-adv-x="256" d="M122.758 192.25L122.5 133.5L75.5 133.24L28.5 132.981L49.987 154.486L71.475 175.992L67.73 179.737L63.986 183.481L36.245 155.741L8.505 128L36.245 100.259L63.986 72.519L67.73 76.263L71.475 80.008L49.996 101.504L28.517 123L128 123L227.483 123L206.004 101.504L184.525 80.008L188.27 76.263L192.014 72.519L219.755 100.259L247.495 128L219.755 155.741L192.014 183.481L188.27 179.737L184.525 175.992L206.013 154.486L227.5 132.981L180.5 133.24L133.5 133.5L133.242 192.25L132.984 251L128 251L123.016 251L122.758 192.25M123 48L123 5L128 5L133 5L133 48L133 91L128 91L123 91L123 48" />
    <glyph glyph-name="cross-left"
      unicode="&#xEA3D;"
      horiz-adv-x="256" d="M122.758 192.25L122.5 133.5L75.5 133.24L28.5 132.981L49.987 154.486L71.475 175.992L67.73 179.737L63.986 183.481L36.245 155.741L8.505 128L36.245 100.259L63.986 72.519L67.73 76.263L71.475 80.008L49.996 101.504L28.517 123L136.759 123L245 123L245 127.992L245 132.983L189.25 133.242L133.5 133.5L133.242 192.25L132.984 251L128 251L123.016 251L122.758 192.25M123 48L123 5L128 5L133 5L133 48L133 91L128 91L123 91L123 48" />
    <glyph glyph-name="cross-right"
      unicode="&#xEA3E;"
      horiz-adv-x="256" d="M122.758 192.25L122.5 133.5L66.75 133.242L11 132.983L11 127.992L11 123L119.241 123L227.483 123L206.004 101.504L184.525 80.008L188.27 76.263L192.014 72.519L219.755 100.259L247.495 128L219.755 155.741L192.014 183.481L188.27 179.737L184.525 175.992L206.013 154.486L227.5 132.981L180.5 133.24L133.5 133.5L133.242 192.25L132.984 251L128 251L123.016 251L122.758 192.25M123 48L123 5L128 5L133 5L133 48L133 91L128 91L123 91L123 48" />
    <glyph glyph-name="cross-up"
      unicode="&#xEA3F;"
      horiz-adv-x="256" d="M100.005 219.505L72.523 192.01L76.266 188.268L80.008 184.525L101.514 206.013L123.019 227.5L122.76 180.5L122.5 133.5L63.75 133.242L5 132.984L5 128L5 123.016L63.75 122.758L122.5 122.5L122.758 66.75L123.017 11L128.008 11L133 11L133.089 67.25C133.139 98.187 133.112 146.9 133.031 175.5L132.884 227.5L154.438 206.013L175.992 184.525L179.734 188.268L183.477 192.01L155.995 219.505C140.88 234.627 128.283 247 128 247C127.717 247 115.12 234.627 100.005 219.505M165 128L165 123L208 123L251 123L251 128L251 133L208 133L165 133L165 128" />
    <glyph glyph-name="cross-vertical"
      unicode="&#xEA40;"
      horiz-adv-x="256" d="M100.005 219.505L72.523 192.01L76.266 188.268L80.008 184.525L101.514 206.013L123.019 227.5L122.76 180.5L122.5 133.5L63.75 133.242L5 132.984L5 128L5 123.016L63.75 122.758L122.5 122.5L122.76 75.5L123.019 28.5L101.514 49.987L80.008 71.475L76.263 67.73L72.519 63.986L100.259 36.245L128 8.505L155.741 36.245L183.481 63.986L179.737 67.73L175.992 71.475L154.523 50.023L133.055 28.572L133.055 128L133.055 227.428L154.523 205.977L175.992 184.525L179.734 188.268L183.477 192.01L155.995 219.505C140.88 234.627 128.283 247 128 247C127.717 247 115.12 234.627 100.005 219.505M165 128L165 123L208 123L251 123L251 128L251 133L208 133L165 133L165 128" />
    <glyph glyph-name="cross"
      unicode="&#xEA41;"
      horiz-adv-x="256" d="M98.5 186.366C79.518 183.445 62.26 170.758 54.078 153.711C51.035 147.369 48 137.187 48 133.316C48 133.142 38.325 133 26.5 133L5 133L5 128L5 123L26.455 123L47.909 123L48.538 119.25C51.255 103.038 60.297 88.783 73.629 79.693C81.682 74.203 89.339 71.313 99.914 69.771C129.432 65.469 160.048 88.461 164.521 118.29L165.227 123L196.35 123L227.472 123L214.001 109.501L200.531 96.003L204.272 92.261L208.014 88.52L227.754 108.26L247.494 128L227.754 147.74L208.014 167.48L204.272 163.739L200.531 159.997L214.001 146.499L227.472 133L196.364 133L165.256 133L164.6 137.25C161.289 158.716 144.951 177.608 124.135 184.039C117.777 186.004 104.17 187.239 98.5 186.366M117.769 174.492C126.931 172.332 133.654 168.533 140.547 161.621C166.72 135.373 154.373 90.886 118.307 81.492C107.073 78.566 94.014 80.18 83.599 85.783C72.579 91.711 61.223 107.227 59.47 118.75L58.824 123L82.912 123L107 123L107 128L107 133L82.912 133L58.824 133L59.47 137.25C59.826 139.588 61.695 144.773 63.624 148.773C73.515 169.28 95.527 179.736 117.769 174.492" />
    <glyph glyph-name="curve-circuit"
      unicode="&#xEA42;"
      horiz-adv-x="256" d="M173.5 249.459C161.818 246.937 150.833 240.892 141.992 232.121C128.252 218.491 123 205.211 123 184.104L123 172.528L109.501 185.999L96.003 199.469L92.261 195.728L88.52 191.986L108.26 172.246L128 152.506L147.74 172.246L167.48 191.986L163.739 195.728L159.997 199.469L146.388 185.985L132.779 172.5L133.313 184.5C133.953 198.88 136.268 207.179 142.061 215.854C160.476 243.43 198.645 248.097 222.639 225.707C233.721 215.365 238.702 204.92 239.664 190C241.268 165.147 225.282 142.286 201.445 135.345C196.162 133.807 187.76 133.545 126 132.994C52.264 132.337 54.065 132.455 42.5 127.501C31.395 122.745 18.684 110.636 12.558 98.978C7.436 89.231 5.681 81.436 5.697 68.5C5.709 58.931 6.095 56.389 8.665 48.956C12.384 38.203 17.164 30.974 26.183 22.467C34.74 14.394 45.871 8.689 57.338 6.498C67.235 4.607 72.14 4.614 81.792 6.532C93.948 8.948 104.904 14.848 114.008 23.879C127.748 37.509 133 50.789 133 71.896L133 83.472L146.499 70.001L159.997 56.531L163.739 60.272L167.48 64.014L147.74 83.754L128 103.494L108.26 83.754L88.52 64.014L92.261 60.272L96.003 56.531L109.616 70.015L123.23 83.5L122.668 71.5C121.994 57.085 119.666 48.723 113.939 40.146C102.127 22.457 82.174 13.673 60.864 16.779C50.374 18.308 41.562 22.607 33.54 30.112C22.732 40.222 17.512 50.665 16.339 64.527C14.048 91.588 32.051 115.911 58.5 121.489C64.258 122.703 77.13 122.968 131.04 122.983C203.76 123.002 202.018 122.864 215.999 129.693C226.874 135.004 238.135 146.513 243.695 158C248.909 168.77 250.361 175.108 250.338 187C250.302 205.566 245.051 217.983 231.515 231.508C226.557 236.462 220.249 241.718 217.497 243.186C205.463 249.608 186.628 252.294 173.5 249.459" />
    <glyph glyph-name="curve-directions"
      unicode="&#xEA43;"
      horiz-adv-x="256" d="M102.738 222.238L77.991 197.476L81.732 193.734L85.474 189.993L104.237 208.737L123 227.48L123 154.053L123 80.625L115.956 88.27C107.131 97.848 96.912 104.741 85.976 108.495C77.696 111.337 76.937 111.413 53.106 111.795L28.713 112.185L42.091 125.591L55.469 138.997L51.728 142.739L47.986 146.48L28.246 126.74L8.506 107L28.246 87.26L47.986 67.52L51.728 71.261L55.469 75.002L42.499 88.001L29.529 101L50.946 101C69.655 101 73.361 100.731 80.249 98.872C98.382 93.979 114.259 78.515 120.01 60.145C121.736 54.631 122 50.956 122 32.395L122 11L128 11L134 11L134 32.395C134 50.833 134.271 54.667 135.964 60.145C141.604 78.4 157.607 93.977 175.751 98.872C182.639 100.731 186.345 101 205.054 101L226.471 101L213.563 88.063L200.654 75.125L204.211 71.188L207.769 67.25L227.628 87.128L247.487 107.006L227.75 126.743L208.014 146.48L204.272 142.739L200.531 138.997L213.909 125.591L227.287 112.185L202.894 111.779C179.595 111.391 178.131 111.251 170.285 108.654C159.618 105.124 148.944 97.928 140.044 88.27L133 80.625L133 154.053L133 227.48L151.779 208.721L170.557 189.962L174.261 193.756L177.966 197.549L153.226 222.275C139.618 235.874 128.26 247 127.985 247C127.71 247 116.349 235.857 102.738 222.238" />
    <glyph glyph-name="curve-split"
      unicode="&#xEA44;"
      horiz-adv-x="256" d="M33.48 211.98L8.51 186.995L33.748 161.757L58.986 136.519L62.73 140.263L66.473 144.007L47.997 162.503L29.52 181L50.942 181C69.655 181 73.361 180.731 80.249 178.872C98.382 173.979 114.259 158.515 120.01 140.145C121.902 134.102 122 130.89 122 74.895L122 16L128 16L134 16L134 74.895C134 130.602 134.106 134.133 135.964 140.145C141.604 158.4 157.607 173.977 175.751 178.872C182.639 180.731 186.345 181 205.058 181L226.48 181L208.003 162.503L189.527 144.007L193.27 140.263L197.014 136.519L222.252 161.757L247.49 186.995L222.52 211.98L197.549 236.966L193.756 233.261L189.962 229.557L208.629 210.871L227.295 192.185L202.898 191.779C179.594 191.391 178.131 191.251 170.285 188.654C155.269 183.684 138.217 169.601 131.385 156.527C129.798 153.49 128.275 151.009 128 151.014C127.725 151.019 126.017 153.724 124.204 157.025C116.838 170.434 101.279 183.242 85.976 188.495C77.696 191.337 76.937 191.413 53.102 191.795L28.705 192.185L47.371 210.871L66.038 229.557L62.244 233.261L58.451 236.966L33.48 211.98" />
    <glyph glyph-name="curved-next"
      unicode="&#xEA45;"
      horiz-adv-x="256" d="M144 206.309L144 176.187L134.25 175.516C96.309 172.908 64.704 160.887 42.286 140.538C24.473 124.369 11.768 99.024 7.425 71C5.921 61.294 4.213 24 5.273 24C5.595 24 8.994 29.288 12.826 35.75C31.027 66.443 45.635 81.055 66.783 89.723C80.782 95.461 104.599 99.702 128.25 100.669L144 101.313L144 71.112L144 40.912L195.25 89.269C223.438 115.866 246.5 138.126 246.5 138.736C246.5 139.345 225.8 159.277 200.5 183.027C175.2 206.778 152.137 228.51 149.25 231.321L144 236.432L144 206.309M200.322 168.556L232.144 138.67L227.822 134.478C225.445 132.173 208.088 115.802 189.25 98.098L155 65.91L155 89.113L155 112.316L136.63 111.677C88.52 110.003 62.535 103.325 41 87.102C34.497 82.202 24.807 72.584 19.742 66L17.05 62.5L17.617 66.5C18.808 74.895 22.979 90.792 25.81 97.724C35.441 121.307 57.09 142.774 81.481 152.928C98.68 160.087 117.024 163.826 140 164.852L154.5 165.5L154.769 188.396L155.038 211.291L161.769 204.867C165.471 201.333 182.82 184.994 200.322 168.556" />
    <glyph glyph-name="curved-previous"
      unicode="&#xEA46;"
      horiz-adv-x="256" d="M60.5 187.805C32.45 161.433 9.5 139.355 9.5 138.742C9.5 138.129 32.563 115.866 60.75 89.269L112 40.912L112 71.112L112 101.313L127.75 100.669C145.603 99.939 158.914 98.142 173.647 94.473C204.806 86.713 221.025 72.991 243.353 35.5L250.5 23.5L250.815 32.5C251.578 54.325 247.637 82.395 241.549 98.5C224.25 144.258 182.107 171.353 121.765 175.513L112.029 176.184L111.765 205.969L111.5 235.753L60.5 187.805M116 164.852C146.733 163.479 170.437 156.981 190.893 144.321C201.597 137.696 217.143 121.824 223.373 111.157C230.828 98.395 235.995 83.014 238.374 66.5L238.95 62.5L236.258 66C231.193 72.584 221.503 82.202 215 87.102C193.437 103.347 167.559 109.956 118.75 111.686L101 112.315L101 89.14L101 65.966L62.48 102.2L23.96 138.434L28.23 142.675C30.579 145.008 47.8 161.281 66.5 178.837L100.5 210.758L101 188.129L101.5 165.5L116 164.852" />
    <glyph glyph-name="delete-49"
      unicode="&#xEA47;"
      horiz-adv-x="256" d="M43.242 167.989L8.984 128L43.242 88.011L77.5 48.022L164.25 48.011L251 48L251 128L251 208L164.25 207.989L77.5 207.978L43.242 167.989M240 128L240 59L161.081 59L82.162 59L52.565 93.5L22.968 128L52.565 162.5L82.162 197L161.081 197L240 197L240 128M118.733 158.267L114.997 154.53L128.234 141.265L141.472 128L128.234 114.735L114.997 101.47L118.733 97.733L122.47 93.997L135.735 107.234L149 120.472L162.499 107.001L175.997 93.531L179.733 97.267L183.469 101.003L169.999 114.501L156.528 128L169.999 141.499L183.469 154.997L179.733 158.733L175.997 162.469L162.499 148.999L149 135.528L135.735 148.766L122.47 162.003L118.733 158.267" />
    <glyph glyph-name="delete-50"
      unicode="&#xEA48;"
      horiz-adv-x="256" d="M43.242 167.989L8.984 128L43.242 88.011L77.5 48.022L164.25 48.011L251 48L251 128L251 208L164.25 207.989L77.5 207.978L43.242 167.989M240 128L240 59L161.081 59L82.162 59L52.565 93.5L22.968 128L52.565 162.5L82.162 197L161.081 197L240 197L240 128" />
    <glyph glyph-name="diag-bottom-left"
      unicode="&#xEA49;"
      horiz-adv-x="256" d="M128.749 136.251L27 34.501L27 83.751L27 133L21.5 133L16 133L16 74.5L16 16L74.5 16L133 16L133 21.5L133 27L83.752 27L34.504 27L136.474 128.974L238.444 230.947L235.026 234.474C233.146 236.413 231.358 238 231.053 238C230.748 238 184.712 192.213 128.749 136.251" />
    <glyph glyph-name="diag-bottom-right"
      unicode="&#xEA4A;"
      horiz-adv-x="256" d="M20.974 234.474L17.556 230.947L119.526 128.974L221.496 27L172.248 27L123 27L123 21.5L123 16L181.5 16L240 16L240 74.5L240 133L234.5 133L229 133L229 83.752L229 34.504L127.248 136.252C71.285 192.213 25.248 238 24.944 238C24.641 238 22.854 236.413 20.974 234.474" />
    <glyph glyph-name="diag-top-left"
      unicode="&#xEA4B;"
      horiz-adv-x="256" d="M16 181.5L16 123L21.5 123L27 123L27 172.248L27 221.496L128.993 119.507L230.985 17.519L234.733 21.267L238.481 25.015L136.493 127.007L34.504 229L83.752 229L133 229L133 234.5L133 240L74.5 240L16 240L16 181.5" />
    <glyph glyph-name="diag-top-right"
      unicode="&#xEA4C;"
      horiz-adv-x="256" d="M123 234.5L123 229L172.248 229L221.496 229L119.507 127.007L17.519 25.015L21.267 21.267L25.015 17.519L127.007 119.507L229 221.496L229 172.248L229 123L234.5 123L240 123L240 181.5L240 240L181.5 240L123 240L123 234.5" />
    <glyph glyph-name="direction-53"
      unicode="&#xEA4D;"
      horiz-adv-x="256" d="M182.736 238.269L178.991 234.524L202.738 210.762L226.484 187L121.242 187L16 187L16 181.5L16 176L121.742 176L227.484 176L203.504 152.004L179.524 128.009L183.27 124.264L187.015 120.519L217.255 150.759L247.496 181L216.989 211.507L186.481 242.015L182.736 238.269M38.5 105L8.512 75L38.982 44.518L69.452 14.036L73.246 17.74L77.04 21.445L53.278 45.222L29.516 69L134.758 69L240 69L240 74.5L240 80L134.258 80L28.516 80L52.477 103.977L76.438 127.953L73.023 131.477C71.144 133.414 69.356 135 69.048 135C68.74 135 54.993 121.5 38.5 105" />
    <glyph glyph-name="direction-56"
      unicode="&#xEA4E;"
      horiz-adv-x="256" d="M155 215.5L155 187L85.5 187L16 187L16 181.5L16 176L85.485 176L154.97 176L155.235 147.162L155.5 118.323L199.225 149.412C223.273 166.51 242.961 180.801 242.975 181.169C243.001 181.873 156.586 244 155.581 244C155.261 244 155 231.175 155 215.5M196.324 202.092C224.335 182.118 225.09 181.491 223.09 179.872C218.879 176.462 166.307 139 165.733 139C165.405 139 165.136 158.133 165.136 181.517C165.136 213.947 165.417 223.869 166.318 223.34C166.968 222.958 180.471 213.396 196.324 202.092M56.775 106.588C32.727 89.49 13.039 75.182 13.025 74.793C13 74.074 99.414 12 100.44 12C100.748 12 101 24.825 101 40.5L101 69L170.5 69L240 69L240 74.5L240 80L170.515 80L101.03 80L100.765 108.838L100.5 137.677L56.775 106.588M90.864 74.483C90.864 42.053 90.583 32.131 89.682 32.66C89.032 33.042 75.557 42.584 59.737 53.865C42.003 66.511 31.331 74.731 31.905 75.305C33.586 76.986 89.484 116.96 90.182 116.98C90.557 116.991 90.864 97.867 90.864 74.483" />
    <glyph glyph-name="direction"
      unicode="&#xEA4F;"
      horiz-adv-x="256" d="M91 245.5L91 240L124.247 240L157.495 240L87.507 170.007L17.519 100.014L21.267 96.267L25.014 92.519L94.993 162.493L164.972 232.467L165.236 198.984L165.5 165.5L170.75 165.198L176 164.895L176 207.948L176 251L133.5 251L91 251L91 245.5M160.997 93.496L91.5 23.993L91 57.246L90.5 90.5L85.25 90.802L80 91.105L80 48.052L80 5L122.5 5L165 5L165 10.5L165 16L131.753 16L98.505 16L168.474 85.974L238.443 155.948L235.025 159.474C233.146 161.413 231.357 163 231.051 163C230.745 163 199.221 131.723 160.997 93.496" />
    <glyph glyph-name="disperse"
      unicode="&#xEA50;"
      horiz-adv-x="256" d="M5.667 250.333C5.3 249.967 5 233.092 5 212.833L5 176L10.5 176L16 176L16 204.243L16 232.486L43.495 205.005L70.99 177.523L74.733 181.267L78.477 185.01L50.995 212.505L23.514 240L51.757 240L80 240L80 245.5L80 251L43.167 251C22.908 251 6.033 250.7 5.667 250.333M176 245.512L176 240L204.243 240L232.486 240L205.005 212.505L177.523 185.01L181.267 181.267L185.01 177.523L212.505 205.005L240 232.486L240 204.243L240 176L245.512 176L251.024 176L250.762 213.25L250.5 250.5L213.25 250.762L176 251.024L176 245.512M114.892 162.694C99.508 156.233 91 143.956 91 128.217C91 114.605 96.891 103.948 108.5 96.558C114.876 92.5 120.137 91 128 91C141.537 91 152.94 97.555 160.185 109.5C164.931 117.325 166.434 129.298 163.812 138.384C160.998 148.134 152.914 157.282 143.046 161.883C135.004 165.632 122.73 165.986 114.892 162.694M139.703 151.731C144.814 149.252 149.098 144.914 152.001 139.274C155.094 133.267 155.034 122.79 151.871 116.456C149.201 111.11 143.359 105.487 138.14 103.237C133.421 101.204 122.579 101.204 117.86 103.237C101.284 110.38 96.311 132.654 108.343 145.87C116.053 154.338 129.242 156.803 139.703 151.731M5.238 42.75L5.5 5.5L42.75 5.238L80 4.976L80 10.488L80 16L51.757 16L23.514 16L50.995 43.495L78.477 70.99L74.733 74.733L70.99 78.477L43.495 50.995L16 23.514L16 51.757L16 80L10.488 80L4.976 80L5.238 42.75M240 51.757L240 23.514L212.505 50.995L185.01 78.477L181.267 74.733L177.523 70.99L205.005 43.495L232.486 16L204.243 16L176 16L176 10.488L176 4.976L213.25 5.238L250.5 5.5L250.762 42.75L251.024 80L245.512 80L240 80L240 51.757" />
    <glyph glyph-name="dots-download"
      unicode="&#xEA51;"
      horiz-adv-x="256" d="M5.457 249.749C5.186 249.043 5.085 236.998 5.232 222.983L5.5 197.5L10.75 197.198L16 196.895L16 218.448L16 240L37.552 240L59.105 240L58.802 245.25L58.5 250.5L32.225 250.767C11.563 250.976 5.845 250.759 5.457 249.749M101 245.516L101 240L128.052 240L155.105 240L154.802 245.25L154.5 250.5L127.75 250.766L101 251.033L101 245.516M197.683 250.35C197.307 249.974 197 247.492 197 244.833L197 240L218.5 240L240 240L240 218.448L240 196.895L245.25 197.198L250.5 197.5L250.5 224L250.5 250.5L224.433 250.766C210.096 250.913 198.059 250.725 197.683 250.35M123 134.258L123 76.515L98.722 100.778L74.445 125.04L70.74 121.246L67.036 117.452L97.518 86.982L128 56.512L158.482 86.982L188.964 117.452L185.26 121.246L181.555 125.04L157.278 100.778L133 76.515L133 134.258L133 192L128 192L123 192L123 134.258M5 128L5 101L10.5 101L16 101L16 128L16 155L10.5 155L5 155L5 128M240 128L240 100.895L245.25 101.198L250.5 101.5L250.5 128L250.5 154.5L245.25 154.802L240 155.105L240 128M5.451 57.733C5.184 57.036 5.085 44.998 5.232 30.983L5.5 5.5L32 5.5L58.5 5.5L58.802 10.75L59.105 16L37.552 16L16 16L16 37.5L16 59L10.969 59C7.83 59 5.754 58.523 5.451 57.733M240 37.552L240 16L218.448 16L196.895 16L197.198 10.75L197.5 5.5L224 5.5L250.5 5.5L250.5 32L250.5 58.5L245.25 58.802L240 59.105L240 37.552M101 10.484L101 4.967L127.75 5.234L154.5 5.5L154.802 10.75L155.105 16L128.052 16L101 16L101 10.484" />
    <glyph glyph-name="dots-upload"
      unicode="&#xEA52;"
      horiz-adv-x="256" d="M5.457 249.749C5.186 249.043 5.085 236.998 5.232 222.983L5.5 197.5L10.75 197.198L16 196.895L16 218.448L16 240L37.552 240L59.105 240L58.802 245.25L58.5 250.5L32.225 250.767C11.563 250.976 5.845 250.759 5.457 249.749M101 245.516L101 240L128.052 240L155.105 240L154.802 245.25L154.5 250.5L127.75 250.766L101 251.033L101 245.516M197.683 250.35C197.307 249.974 197 247.492 197 244.833L197 240L218.5 240L240 240L240 218.448L240 196.895L245.25 197.198L250.5 197.5L250.5 224L250.5 250.5L224.433 250.766C210.096 250.913 198.059 250.725 197.683 250.35M97.239 168.739L66.989 138.477L70.733 134.734L74.476 130.991L98.738 155.238L123 179.485L123 121.742L123 64L128 64L133 64L133 121.742L133 179.485L157.278 155.222L181.555 130.96L185.26 134.754L188.964 138.548L158.726 168.774C142.095 185.398 128.263 199 127.988 199C127.713 199 113.876 185.382 97.239 168.739M5 128L5 101L10.5 101L16 101L16 128L16 155L10.5 155L5 155L5 128M240 128L240 100.895L245.25 101.198L250.5 101.5L250.5 128L250.5 154.5L245.25 154.802L240 155.105L240 128M5.451 57.733C5.184 57.036 5.085 44.998 5.232 30.983L5.5 5.5L32 5.5L58.5 5.5L58.802 10.75L59.105 16L37.552 16L16 16L16 37.5L16 59L10.969 59C7.83 59 5.754 58.523 5.451 57.733M240 37.552L240 16L218.448 16L196.895 16L197.198 10.75L197.5 5.5L224 5.5L250.5 5.5L250.5 32L250.5 58.5L245.25 58.802L240 59.105L240 37.552M101 10.484L101 4.967L127.75 5.234L154.5 5.5L154.802 10.75L155.105 16L128.052 16L101 16L101 10.484" />
    <glyph glyph-name="double-left"
      unicode="&#xEA53;"
      horiz-adv-x="256" d="M92.481 184.981L35.507 128L92.481 71.019L149.455 14.038L153.25 17.744L157.044 21.449L103.776 74.724L50.507 128L103.776 181.276L157.044 234.551L153.25 238.256L149.455 241.962L92.481 184.981M156.481 184.981L99.507 128L156.481 71.019L213.455 14.038L217.25 17.744L221.044 21.449L167.776 74.724L114.507 128L167.776 181.276L221.044 234.551L217.25 238.256L213.455 241.962L156.481 184.981" />
    <glyph glyph-name="double-right"
      unicode="&#xEA54;"
      horiz-adv-x="256" d="M38.735 238.268L34.987 234.52L88.24 181.26L141.493 128L88.224 74.724L34.956 21.449L38.75 17.744L42.545 14.038L99.52 71.02L156.496 128.002L99.489 185.009L42.482 242.016L38.735 238.268M102.735 238.268L98.987 234.52L152.24 181.26L205.493 128L152.224 74.724L98.956 21.449L102.75 17.744L106.545 14.038L163.52 71.02L220.496 128.002L163.489 185.009L106.482 242.016L102.735 238.268" />
    <glyph glyph-name="download-file"
      unicode="&#xEA55;"
      horiz-adv-x="256" d="M123 156C123 107.05 122.667 67 122.26 67C121.853 67 113.304 75.206 103.263 85.237L85.007 103.473L81.263 99.73L77.519 95.986L102.76 70.745L128 45.505L153.24 70.745L178.481 95.986L174.737 99.73L170.993 103.473L152.737 85.237C142.696 75.206 134.147 67 133.74 67C133.333 67 133 107.05 133 156L133 245L128 245L123 245L123 156M32.125 75.505C22.706 37.833 15 6.558 15 6.005C15 5.337 52.932 5 128 5C203.068 5 241 5.337 241 6.005C241 6.558 233.294 37.833 223.875 75.505L206.75 144L185.823 144L164.895 144L165.198 138.75L165.5 133.5L182.013 133.227L198.525 132.954L213.136 74.477L227.747 16L128 16L28.253 16L42.864 74.477L57.475 132.954L73.987 133.227L90.5 133.5L90.802 138.75L91.105 144L70.177 144L49.25 144L32.125 75.505" />
    <glyph glyph-name="download-3"
      unicode="&#xEA56;"
      horiz-adv-x="256" d="M27 128L27 5L128 5L229 5L229 128L229 251L128 251L27 251L27 128M219 128L219 16L128 16L37 16L37 128L37 240L128 240L219 240L219 128M123 134.26L123 87.52L104.221 106.279L85.443 125.038L81.808 121.269L78.174 117.5L102.941 92.313L127.708 67.126L152.825 92.301L177.942 117.475L174.25 121.256L170.557 125.038L151.779 106.279L133 87.52L133 134.26L133 181L128 181L123 181L123 134.26" />
    <glyph glyph-name="download"
      unicode="&#xEA57;"
      horiz-adv-x="256" d="M123 168.761L123 92.523L106.721 108.78L90.441 125.036L86.737 121.243L83.033 117.45L105.517 94.983L128 72.517L150.483 94.983L172.967 117.45L169.263 121.243L165.559 125.036L149.279 108.78L133 92.523L133 168.761L133 245L128 245L123 245L123 168.761M43 82.5L43 5L128 5L213 5L213 82.5L213 160L188.948 160L164.895 160L165.198 154.75L165.5 149.5L184.25 149.228L203 148.956L203 82.478L203 16L128 16L53 16L53 82.478L53 148.956L71.75 149.228L90.5 149.5L90.802 154.75L91.105 160L67.052 160L43 160L43 82.5" />
    <glyph glyph-name="eject"
      unicode="&#xEA58;"
      horiz-adv-x="256" d="M5.671 250.337C5.302 249.968 5 204.292 5 148.833L5 48L29 48L53 48L53 53.5L53 59L34.5 59L16 59L16 149.5L16 240L128 240L240 240L240 149.5L240 59L221.5 59L203 59L203 53.5L203 48L227.005 48L251.01 48L250.755 149.25L250.5 250.5L128.421 250.754C61.277 250.894 6.039 250.706 5.671 250.337M94.059 56.147C75.666 29.31 60.441 6.823 60.225 6.176C59.927 5.282 76.202 5 128 5C179.032 5 196.07 5.29 195.782 6.153C195.223 7.832 128.593 104.94 128 104.941C127.725 104.941 112.451 82.984 94.059 56.147M152 51.801C164.925 32.999 175.65 17.251 175.833 16.807C176.017 16.363 154.492 16 128 16C101.508 16 79.983 16.363 80.167 16.807C80.869 18.509 127.526 85.988 128 85.988C128.275 85.988 139.075 70.604 152 51.801" />
    <glyph glyph-name="enlarge-45"
      unicode="&#xEA59;"
      horiz-adv-x="256" d="M52.035 160.567C31.43 143.321 14.422 128.767 14.242 128.225C13.941 127.322 89.028 64 90.4 64C90.73 64 91 92.8 91 128C91 163.2 90.662 191.983 90.25 191.962C89.838 191.941 72.641 177.813 52.035 160.567M165 128C165 92.8 165.27 64 165.6 64C166.595 64 242 127.105 242 127.938C242 128.786 166.638 192 165.627 192C165.282 192 165 163.2 165 128M80 127.981L80 85.963L55.25 106.618C41.637 117.978 30.5 127.6 30.5 128C30.5 128.569 78.752 169.65 79.75 169.93C79.888 169.968 80 151.092 80 127.981M225.5 128C225.5 127.6 214.363 117.978 200.75 106.618L176 85.963L176 128L176 170.037L200.75 149.382C214.363 138.022 225.5 128.4 225.5 128" />
    <glyph glyph-name="enlarge-46"
      unicode="&#xEA5A;"
      horiz-adv-x="256" d="M38.577 163.5L8.976 128L38.577 92.5C54.858 72.975 68.476 57.007 68.839 57.015C69.203 57.023 71.157 58.486 73.183 60.265L76.865 63.5L49.937 95.75L23.008 128L49.937 160.25L76.865 192.5L73.183 195.735C71.157 197.514 69.203 198.977 68.839 198.985C68.476 198.993 54.858 183.025 38.577 163.5M182.817 195.735L179.135 192.5L206.073 160.239L233.011 127.977L206.043 95.739L179.076 63.5L182.788 60.265C184.83 58.486 186.797 57.023 187.161 57.015C187.524 57.007 201.142 72.975 217.423 92.5L247.024 128L217.423 163.5C201.142 183.025 187.524 198.993 187.161 198.985C186.797 198.977 184.843 197.514 182.817 195.735" />
    <glyph glyph-name="enlarge-circle"
      unicode="&#xEA5B;"
      horiz-adv-x="256" d="M5.667 250.333C5.3 249.967 5 233.092 5 212.833L5 176L10.5 176L16 176L16 208L16 240L48 240L80 240L80 245.5L80 251L43.167 251C22.908 251 6.033 250.7 5.667 250.333M176 245.512L176 240L208 240L240 240L240 208L240 176L245.512 176L251.024 176L250.762 213.25L250.5 250.5L213.25 250.762L176 251.024L176 245.512M117 174.638C108.207 172.727 102 169.135 94.42 161.568C86.842 154.002 83.03 147.307 81.115 138.201C77.623 121.6 82.136 106.781 94.448 94.42C104.273 84.557 114.876 80 128 80C141.124 80 151.727 84.557 161.552 94.42C173.864 106.781 178.377 121.6 174.885 138.201C172.968 147.319 169.16 154.001 161.58 161.552C149.071 174.011 134.205 178.375 117 174.638M144.155 161.238C151.681 157.525 157.731 151.564 161.65 144C164.227 139.028 164.5 137.541 164.5 128.5C164.5 119.637 164.179 117.805 161.676 112.39C158.318 105.122 151.637 98.304 144 94.349C138.977 91.747 137.589 91.5 128 91.5C118.411 91.5 117.023 91.747 112 94.349C104.363 98.304 97.682 105.122 94.324 112.39C91.821 117.805 91.5 119.637 91.5 128.5C91.5 137.542 91.773 139.027 94.351 144C101.648 158.075 113.93 165.268 129.655 164.676C136.392 164.422 138.912 163.824 144.155 161.238M5.238 42.75L5.5 5.5L42.75 5.238L80 4.976L80 10.488L80 16L48 16L16 16L16 48L16 80L10.488 80L4.976 80L5.238 42.75M240 48L240 16L208 16L176 16L176 10.488L176 4.976L213.25 5.238L250.5 5.5L250.762 42.75L251.024 80L245.512 80L240 80L240 48" />
    <glyph glyph-name="enlarge-diagonal-43"
      unicode="&#xEA5C;"
      horiz-adv-x="256" d="M144 234.5L144 229L182.748 229L221.496 229L124.498 131.998L27.5 34.995L27.238 73.498L26.977 112L21.488 112L16 112L16 64L16 16L64 16L112 16L112 21.5L112 27L73.252 27L34.504 27L131.502 124.002L228.5 221.005L228.762 182.502L229.023 144L234.512 144L240 144L240 192L240 240L192 240L144 240L144 234.5" />
    <glyph glyph-name="enlarge-diagonal-44"
      unicode="&#xEA5D;"
      horiz-adv-x="256" d="M16 192L16 144L21.5 144L27 144L27 182.748L27 221.496L124.002 124.498L221.005 27.5L182.502 27.238L144 26.977L144 21.488L144 16L192 16L240 16L240 64L240 112L234.512 112L229.023 112L228.762 73.498L228.5 34.995L131.502 131.998L34.504 229L73.252 229L112 229L112 234.5L112 240L64 240L16 240L16 192" />
    <glyph glyph-name="enlarge-horizontal"
      unicode="&#xEA5E;"
      horiz-adv-x="256" d="M38.982 158.482L8.512 128L38.982 97.518L69.452 67.036L73.246 70.74L77.04 74.445L52.778 98.722L28.515 123L128 123L227.485 123L203.222 98.722L178.96 74.445L182.754 70.74L186.548 67.036L217.018 97.518L247.488 128L217.018 158.482L186.548 188.964L182.754 185.26L178.96 181.555L203.222 157.278L227.485 133L128 133L28.515 133L52.778 157.278L77.04 181.555L73.246 185.26L69.452 188.964L38.982 158.482" />
    <glyph glyph-name="enlarge-vertical"
      unicode="&#xEA5F;"
      horiz-adv-x="256" d="M97.239 216.739L66.989 186.477L70.733 182.734L74.476 178.991L98.738 203.238L123 227.485L123 128L123 28.515L98.722 52.778L74.445 77.04L70.74 73.246L67.036 69.452L97.518 38.982L128 8.512L158.482 38.982L188.964 69.452L185.26 73.246L181.555 77.04L157.278 52.778L133 28.515L133 128L133 227.485L157.278 203.222L181.555 178.96L185.26 182.754L188.964 186.548L158.726 216.774C142.095 233.398 128.263 247 127.988 247C127.713 247 113.876 233.382 97.239 216.739" />
    <glyph glyph-name="export"
      unicode="&#xEA60;"
      horiz-adv-x="256" d="M5.461 249.75C5.2 249.062 5.101 193.825 5.243 127L5.5 5.5L128 5.5L250.5 5.5L250.802 10.75L251.105 16L133.552 16L16 16L16 133.5L16 251L10.969 251C7.864 251 5.755 250.521 5.461 249.75M155 245.51L155 240L193.747 240L232.493 240L178.747 186.247C149.186 156.682 125 132.016 125 131.434C125 130.144 130.238 125 131.551 125C132.069 125 156.682 149.186 186.247 178.747L240 232.493L240 193.747L240 155L245.51 155L251.019 155L250.76 202.75L250.5 250.5L202.75 250.76L155 251.019L155 245.51" />
    <glyph glyph-name="file-download-87"
      unicode="&#xEA61;"
      horiz-adv-x="256" d="M123 200.761L123 156.523L106.721 172.78L90.441 189.036L86.737 185.243L83.033 181.45L105.517 158.983L128 136.517L150.483 158.983L172.967 181.45L169.263 185.243L165.559 189.036L149.279 172.78L133 156.523L133 200.761L133 245L128 245L123 245L123 200.761M5.245 101.25L5.5 5.5L128 5.5L250.5 5.5L250.755 101.25L251.01 197L227.005 197L203 197L203 192L203 187L221.5 187L240 187L240 144L240 101L128 101L16 101L16 144L16 187L34.5 187L53 187L53 192L53 197L28.995 197L4.99 197L5.245 101.25M240 53.5L240 16L128 16L16 16L16 53.5L16 91L128 91L240 91L240 53.5M101 53.516L101 48L128.052 48L155.105 48L154.802 53.25L154.5 58.5L127.75 58.766L101 59.033L101 53.516" />
    <glyph glyph-name="file-download-89"
      unicode="&#xEA62;"
      horiz-adv-x="256" d="M123 200.761L123 156.523L106.721 172.78L90.441 189.036L86.737 185.243L83.033 181.45L105.517 158.983L128 136.517L150.483 158.983L172.967 181.45L169.263 185.243L165.559 189.036L149.279 172.78L133 156.523L133 200.761L133 245L128 245L123 245L123 200.761M38.694 196.25C38.461 195.837 30.779 172.986 21.624 145.469L4.979 95.437L5.24 50.469L5.5 5.5L128 5.5L250.5 5.5L250.756 50.5L251.013 95.5L234.174 146L217.335 196.5L207.168 196.785L197 197.07L197 192.083L197 187.095L203.25 186.798L209.5 186.5L223.674 144.5C231.47 121.4 237.883 102.162 237.924 101.75C237.966 101.338 221.575 101 201.5 101L165 101L165 85L165 69L128 69L91 69L91 85L91 101L54.5 101C34.425 101 18.034 101.338 18.076 101.75C18.117 102.162 24.53 121.4 32.326 144.5L46.5 186.5L52.75 186.798L59 187.095L59 192.048L59 197L49.059 197C43.591 197 38.927 196.663 38.694 196.25M80 75L80 59L128 59L176 59L176 75L176 91L208 91L240 91L240 53.5L240 16L128 16L16 16L16 53.5L16 91L48 91L80 91L80 75" />
    <glyph glyph-name="file-download-94"
      unicode="&#xEA63;"
      horiz-adv-x="256" d="M123 198.262L123 151.523L107.002 167.498L91.005 183.472L87.284 179.75L83.562 176.029L105.531 153.723L127.5 131.418L149.99 153.702L172.481 175.986L168.738 179.729L164.995 183.472L148.998 167.498L133 151.523L133 198.262L133 245L128 245L123 245L123 198.262M38.694 196.25C38.461 195.837 30.779 172.986 21.624 145.469L4.979 95.437L5.24 50.469L5.5 5.5L128 5.5L250.5 5.5L250.756 50.5L251.013 95.5L234.174 146L217.335 196.5L207.168 196.785L197 197.07L197 192.083L197 187.095L203.25 186.798L209.5 186.5L223.674 144.5C231.47 121.4 237.883 102.162 237.924 101.75C237.966 101.338 188.5 101 128 101C67.5 101 18.034 101.338 18.076 101.75C18.117 102.162 24.53 121.4 32.326 144.5L46.5 186.5L52.75 186.798L59 187.095L59 192.048L59 197L49.059 197C43.591 197 38.927 196.663 38.694 196.25M240 53.5L240 16L128 16L16 16L16 53.5L16 91L128 91L240 91L240 53.5M155 53.5L155 48L181.5 48L208 48L208 53.5L208 59L181.5 59L155 59L155 53.5" />
    <glyph glyph-name="file-upload-86"
      unicode="&#xEA64;"
      horiz-adv-x="256" d="M105.237 224.738L82.991 202.475L86.732 198.735L90.472 194.994L106.736 211.236L123 227.477L123 185.739L123 144L128 144L133 144L133 185.739L133 227.477L149.279 211.22L165.559 194.964L169.263 198.757L172.967 202.55L150.725 224.775C138.492 236.999 128.259 247 127.984 247C127.708 247 117.473 236.982 105.237 224.738M5.245 101.25L5.5 5.5L128 5.5L250.5 5.5L250.755 101.25L251.01 197L227.005 197L203 197L203 192L203 187L221.5 187L240 187L240 144L240 101L128 101L16 101L16 144L16 187L34.5 187L53 187L53 192L53 197L28.995 197L4.99 197L5.245 101.25M240 53.5L240 16L128 16L16 16L16 53.5L16 91L128 91L240 91L240 53.5M101 53.516L101 48L128.052 48L155.105 48L154.802 53.25L154.5 58.5L127.75 58.766L101 59.033L101 53.516" />
    <glyph glyph-name="file-upload-88"
      unicode="&#xEA65;"
      horiz-adv-x="256" d="M105.237 224.738L82.991 202.475L86.732 198.735L90.472 194.994L106.736 211.236L123 227.477L123 185.739L123 144L128 144L133 144L133 185.739L133 227.477L149.279 211.22L165.559 194.964L169.263 198.757L172.967 202.55L150.725 224.775C138.492 236.999 128.259 247 127.984 247C127.708 247 117.473 236.982 105.237 224.738M38.694 196.25C38.461 195.837 30.779 172.986 21.624 145.469L4.979 95.437L5.24 50.469L5.5 5.5L128 5.5L250.5 5.5L250.756 50.5L251.013 95.5L234.174 146L217.335 196.5L207.168 196.785L197 197.07L197 192.083L197 187.095L203.25 186.798L209.5 186.5L223.674 144.5C231.47 121.4 237.883 102.162 237.924 101.75C237.966 101.338 221.575 101 201.5 101L165 101L165 85L165 69L128 69L91 69L91 85L91 101L54.5 101C34.425 101 18.034 101.338 18.076 101.75C18.117 102.162 24.53 121.4 32.326 144.5L46.5 186.5L52.75 186.798L59 187.095L59 192.048L59 197L49.059 197C43.591 197 38.927 196.663 38.694 196.25M80 75L80 59L128 59L176 59L176 75L176 91L208 91L240 91L240 53.5L240 16L128 16L16 16L16 53.5L16 91L48 91L80 91L80 75" />
    <glyph glyph-name="file-upload-93"
      unicode="&#xEA66;"
      horiz-adv-x="256" d="M105.237 224.738L82.991 202.475L86.732 198.735L90.472 194.994L106.736 211.236L123 227.477L123 185.739L123 144L128 144L133 144L133 185.739L133 227.477L149.279 211.22L165.559 194.964L169.263 198.757L172.967 202.55L150.725 224.775C138.492 236.999 128.259 247 127.984 247C127.708 247 117.473 236.982 105.237 224.738M38.694 196.25C38.461 195.837 30.779 172.986 21.624 145.469L4.979 95.437L5.24 50.469L5.5 5.5L128 5.5L250.5 5.5L250.756 50.5L251.013 95.5L234.174 146L217.335 196.5L207.168 196.785L197 197.07L197 192.083L197 187.095L203.25 186.798L209.5 186.5L223.674 144.5C231.47 121.4 237.883 102.162 237.924 101.75C237.966 101.338 188.5 101 128 101C67.5 101 18.034 101.338 18.076 101.75C18.117 102.162 24.53 121.4 32.326 144.5L46.5 186.5L52.75 186.798L59 187.095L59 192.048L59 197L49.059 197C43.591 197 38.927 196.663 38.694 196.25M240 53.5L240 16L128 16L16 16L16 53.5L16 91L128 91L240 91L240 53.5M155 53.5L155 48L181.5 48L208 48L208 53.5L208 59L181.5 59L155 59L155 53.5" />
    <glyph glyph-name="fit-horizontal"
      unicode="&#xEA67;"
      horiz-adv-x="256" d="M5 128L5 16L10.5 16L16 16L16 128L16 240L10.5 240L5 240L5 128M240 128L240 16L245.5 16L251 16L251 128L251 240L245.5 240L240 240L240 128M60.483 152.983L35.515 128L60.483 103.017L85.451 78.034L89.244 81.739L93.038 85.443L74.279 104.221L55.52 123L128 123L200.48 123L181.721 104.221L162.962 85.443L166.756 81.739L170.549 78.034L195.517 103.017L220.485 128L195.517 152.983L170.549 177.966L166.756 174.261L162.962 170.557L181.721 151.779L200.48 133L128 133L55.52 133L74.279 151.779L93.038 170.557L89.244 174.261L85.451 177.966L60.483 152.983" />
    <glyph glyph-name="fit-vertical"
      unicode="&#xEA68;"
      horiz-adv-x="256" d="M16 245.5L16 240L128 240L240 240L240 245.5L240 251L128 251L16 251L16 245.5M102.752 195.577L78.005 170.462L81.739 166.727L85.474 162.993L104.237 181.737L123 200.48L123 128L123 55.52L104.221 74.279L85.443 93.038L81.808 89.269L78.174 85.5L102.941 60.313L127.708 35.126L152.825 60.301L177.942 85.475L174.25 89.256L170.557 93.038L151.779 74.279L133 55.52L133 128L133 200.48L151.779 181.721L170.557 162.962L174.25 166.744L177.942 170.525L152.762 195.763C138.913 209.643 127.564 220.931 127.541 220.846C127.519 220.761 116.364 209.39 102.752 195.577M16 10.5L16 5L128 5L240 5L240 10.5L240 16L128 16L16 16L16 10.5" />
    <glyph glyph-name="fork-round"
      unicode="&#xEA69;"
      horiz-adv-x="256" d="M108.004 227.504L88.526 208.007L92.265 204.269L96.003 200.531L109.519 214.015L123.036 227.5L122.972 134.25C122.937 82.963 122.699 41 122.443 41C122.186 41 114.8 44.594 106.028 48.986C86.706 58.661 80.079 64.377 74.538 76.146C69.945 85.899 69.017 92.672 69.008 116.486L69 136.472L82.499 123.001L95.997 109.531L99.726 113.26L103.455 116.989L83.978 136.843C73.265 147.764 64.275 156.698 64 156.698C63.725 156.698 54.735 147.764 44.022 136.843L24.545 116.989L28.274 113.26L32.003 109.531L45.501 123.001L59 136.472L59.015 112.986C59.032 86.381 59.804 81.323 65.617 69.746C68.139 64.725 71.445 60.342 76.384 55.471C82.763 49.179 85.53 47.417 102.756 38.676L122 28.91L122 19.955L122 11L128.154 11L134.307 11L133.615 30.454L132.923 49.908L151.786 59.418C162.161 64.649 172.915 70.733 175.684 72.938C185.12 80.45 193.349 93.842 195.879 105.799C196.558 109.008 197 122.413 197 139.785L197 168.472L210.499 155.001L223.997 141.531L227.726 145.26L231.455 148.989L211.978 168.843C201.265 179.764 192.275 188.698 192 188.698C191.725 188.698 182.735 179.764 172.022 168.843L152.545 148.989L156.274 145.26L160.003 141.531L173.501 155.001L187 168.472L186.98 143.486C186.958 115.604 186.09 107.061 182.479 99.173C176.26 85.589 168.579 79.031 146.75 68.667L133 62.139L133 144.806L133 227.472L146.499 214.001L159.997 200.531L163.735 204.269L167.474 208.007L147.996 227.504C137.284 238.227 128.286 247 128 247C127.714 247 118.716 238.227 108.004 227.504" />
    <glyph glyph-name="fork"
      unicode="&#xEA6A;"
      horiz-adv-x="256" d="M108.004 227.504L88.526 208.007L92.265 204.269L96.003 200.531L109.519 214.015L123.036 227.5L122.972 134.25C122.937 82.963 122.707 41 122.459 41C122.212 41 110.083 46.959 95.505 54.241L69 67.482L69 101.977L69 136.472L82.499 123.001L95.997 109.531L99.726 113.26L103.455 116.989L83.978 136.843C73.265 147.764 64.275 156.698 64 156.698C63.725 156.698 54.735 147.764 44.022 136.843L24.545 116.989L28.274 113.26L32.003 109.531L45.501 123.001L59 136.472L59 98.479L59 60.485L90.5 44.745L122 29.004L122 20.002L122 11L128.154 11L134.307 11L133.614 30.477L132.921 49.955L164.961 65.98L197 82.006L197 125.239L197 168.472L210.499 155.001L223.997 141.531L227.726 145.26L231.455 148.989L211.978 168.843C201.265 179.764 192.275 188.698 192 188.698C191.725 188.698 182.735 179.764 172.022 168.843L152.545 148.989L156.274 145.26L160.003 141.531L173.501 155.001L187 168.472L187 128.859C187 98.352 186.713 89.022 185.75 88.275C185.063 87.741 172.912 81.641 158.75 74.718L133 62.132L133 144.802L133 227.472L146.499 214.001L159.997 200.531L163.735 204.269L167.474 208.007L147.996 227.504C137.284 238.227 128.286 247 128 247C127.714 247 118.716 238.227 108.004 227.504" />
    <glyph glyph-name="format-left"
      unicode="&#xEA6B;"
      horiz-adv-x="256" d="M5 224L5 219L128 219L251 219L251 224L251 229L128 229L5 229L5 224M33.483 152.983L8.515 128L33.483 103.017L58.451 78.034L62.244 81.739L66.038 85.443L47.279 104.221L28.52 123L83.76 123L139 123L139 128L139 133L83.76 133L28.52 133L47.279 151.779L66.038 170.557L62.244 174.261L58.451 177.966L33.483 152.983M176 160L176 155L213.5 155L251 155L251 160L251 165L213.5 165L176 165L176 160M176 96L176 91L213.5 91L251 91L251 96L251 101L213.5 101L176 101L176 96M5 32L5 27L128 27L251 27L251 32L251 37L128 37L5 37L5 32" />
    <glyph glyph-name="format-right"
      unicode="&#xEA6C;"
      horiz-adv-x="256" d="M5 224L5 219L128 219L251 219L251 224L251 229L128 229L5 229L5 224M193.737 174.27L189.993 170.526L208.737 151.763L227.48 133L172.24 133L117 133L117 128L117 123L172.24 123L227.48 123L208.721 104.221L189.962 85.443L193.756 81.739L197.549 78.034L222.52 103.02L247.49 128.005L222.485 153.01L197.481 178.014L193.737 174.27M5 160L5 155L42.5 155L80 155L80 160L80 165L42.5 165L5 165L5 160M5 96L5 91L42.5 91L80 91L80 96L80 101L42.5 101L5 101L5 96M5 32L5 27L128 27L251 27L251 32L251 37L128 37L5 37L5 32" />
    <glyph glyph-name="fullscreen-70"
      unicode="&#xEA6D;"
      horiz-adv-x="256" d="M168.259 219.241C179.667 207.824 189 198.035 189 197.488C189 196.166 59.788 67 58.466 67C57.9 67 48.114 76.362 36.719 87.804L16 108.609L16 62.304L16 16L62.241 16L108.482 16L87.741 36.759C76.333 48.176 67 57.965 67 58.512C67 59.87 196.231 189 197.591 189C198.188 189 207.974 179.581 219.338 168.068L240 147.136L240 193.568L240 240L193.759 240L147.518 240L168.259 219.241M229 201.5C229 186.375 228.884 174 228.743 174C228.602 174 216.117 186.375 201 201.5L173.514 229L201.257 229L229 229L229 201.5M55 54.5L82.486 27L54.743 27L27 27L27 54.5C27 69.625 27.116 82 27.257 82C27.398 82 39.883 69.625 55 54.5" />
    <glyph glyph-name="fullscreen-71"
      unicode="&#xEA6E;"
      horiz-adv-x="256" d="M16 193.696L16 147.391L36.719 168.196C48.114 179.638 57.903 189 58.471 189C59.794 189 189 59.828 189 58.506C189 57.962 179.667 48.176 168.259 36.759L147.518 16L193.759 16L240 16L240 62.304L240 108.609L219.281 87.804C207.886 76.362 198.1 67 197.534 67C196.969 67 167.143 96.36 131.256 132.244L66.006 197.489L87.244 218.744L108.483 240L62.241 240L16 240L16 193.696M82 228.743C82 228.602 69.625 216.117 54.5 201L27 173.514L27 201.257L27 229L54.5 229C69.625 229 82 228.884 82 228.743M229 54.5L229 27L201.257 27L173.514 27L201 54.5C216.117 69.625 228.602 82 228.743 82C228.884 82 229 69.625 229 54.5" />
    <glyph glyph-name="fullscreen-76"
      unicode="&#xEA6F;"
      horiz-adv-x="256" d="M5.667 250.333C5.3 249.967 5 228.933 5 203.592L5 157.517L26.5 179L48.001 200.483L71.996 176.504L95.991 152.524L99.733 156.267L103.476 160.009L79.496 184.004L55.517 207.999L77 229.5L98.483 251L52.408 251C27.067 251 6.033 250.7 5.667 250.333M178.992 229.509L200.483 207.999L176.504 184.004L152.524 160.009L156.267 156.267L160.009 152.524L184.004 176.504L207.999 200.483L229.509 178.992L251.019 157.5L250.76 204L250.5 250.5L204 250.76L157.5 251.019L178.992 229.509M72 239.743C72 239.602 59.4 226.893 44 211.5L16 183.513L16 211.757L16 240L44 240C59.4 240 72 239.884 72 239.743M240 212C240 196.6 239.884 184 239.743 184C239.602 184 226.893 196.6 211.5 212L183.513 240L211.757 240L240 240L240 212M71.75 79.256L48.006 55.511L26.493 77.006L4.981 98.5L5.24 52L5.5 5.5L52 5.24L98.5 4.981L77.008 26.491L55.517 48.001L79.477 71.977L103.438 95.953L100.023 99.477C98.144 101.414 96.357 103 96.051 103C95.745 103 84.81 92.315 71.75 79.256M155.977 99.477L152.562 95.953L176.523 71.977L200.483 48.001L178.992 26.491L157.5 4.981L204 5.24L250.5 5.5L250.76 52L251.019 98.5L229.509 77.008L207.999 55.517L184.242 79.258C171.175 92.316 160.239 103 159.939 103C159.638 103 157.856 101.414 155.977 99.477M44.5 44L72.487 16L44.243 16L16 16L16 44C16 59.4 16.116 72 16.257 72C16.398 72 29.107 59.4 44.5 44M240 44L240 16L211.757 16L183.513 16L211.5 44C226.893 59.4 239.602 72 239.743 72C239.884 72 240 59.4 240 44" />
    <glyph glyph-name="fullscreen-77"
      unicode="&#xEA70;"
      horiz-adv-x="256" d="M5.667 250.333C5.3 249.967 5 233.092 5 212.833L5 176L10.5 176L16 176L16 204.244L16 232.489L48.761 199.739L81.522 166.989L85.267 170.733L89.011 174.478L56.261 207.239L23.511 240L51.756 240L80 240L80 245.5L80 251L43.167 251C22.908 251 6.033 250.7 5.667 250.333M176 245.512L176 240L204.244 240L232.489 240L199.739 207.239L166.989 174.478L170.733 170.733L174.478 166.989L207.239 199.739L240 232.489L240 204.244L240 176L245.512 176L251.024 176L250.762 213.25L250.5 250.5L213.25 250.762L176 251.024L176 245.512M48.728 56.232L16 23.504L16 51.752L16 80L10.488 80L4.976 80L5.238 42.75L5.5 5.5L42.75 5.238L80 4.976L80 10.488L80 16L51.756 16L23.511 16L56.277 48.777L89.042 81.553L85.249 85.257L81.456 88.96L48.728 56.232M170.733 85.267L166.989 81.522L199.739 48.761L232.489 16L204.244 16L176 16L176 10.488L176 4.976L213.25 5.238L250.5 5.5L250.762 42.75L251.024 80L245.512 80L240 80L240 51.756L240 23.511L207.239 56.261L174.478 89.011L170.733 85.267" />
    <glyph glyph-name="fullscreen-double-74"
      unicode="&#xEA71;"
      horiz-adv-x="256" d="M155 234.5L155 229L188.244 229L221.488 229L189.244 196.744C171.51 179.004 157 164.066 157 163.549C157 162.238 162.144 157 163.431 157C164.013 157 179.004 171.51 196.744 189.244L229 221.488L229 188.244L229 155L234.5 155L240 155L240 197.5L240 240L197.5 240L155 240L155 234.5M16 58.5L16 16L58.5 16L101 16L101 21.5L101 27L67.756 27L34.512 27L66.756 59.256C84.49 76.996 99 91.987 99 92.569C99 93.856 93.762 99 92.451 99C91.934 99 76.996 84.49 59.256 66.756L27 34.512L27 67.756L27 101L21.5 101L16 101L16 58.5" />
    <glyph glyph-name="fullscreen-double-75"
      unicode="&#xEA72;"
      horiz-adv-x="256" d="M16 197.5L16 155L21.5 155L27 155L27 188.244L27 221.488L59.256 189.244C76.996 171.51 91.987 157 92.569 157C93.856 157 99 162.238 99 163.549C99 164.066 84.49 179.004 66.756 196.744L34.512 229L67.756 229L101 229L101 234.5L101 240L58.5 240L16 240L16 197.5M229 67.756L229 34.512L196.744 66.756C179.004 84.49 164.066 99 163.549 99C162.238 99 157 93.856 157 92.569C157 91.987 171.51 76.996 189.244 59.256L221.488 27L188.244 27L155 27L155 21.5L155 16L197.5 16L240 16L240 58.5L240 101L234.5 101L229 101L229 67.756" />
    <glyph glyph-name="fullscreen-split-72"
      unicode="&#xEA73;"
      horiz-adv-x="256" d="M168.259 219.241C179.667 207.824 189 198.04 189 197.499C189 196.958 178.416 185.924 165.48 172.98L141.96 149.445L145.755 145.739L149.55 142.034L173.017 165.517C185.924 178.433 196.977 189 197.58 189C198.183 189 207.974 179.581 219.338 168.068L240 147.136L240 193.568L240 240L193.759 240L147.518 240L168.259 219.241M229 201.5C229 186.375 228.884 174 228.743 174C228.602 174 216.117 186.375 201 201.5L173.514 229L201.257 229L229 229L229 201.5M82.983 90.483C70.076 77.567 59.048 67 58.477 67C57.905 67 48.114 76.362 36.719 87.804L16 108.609L16 62.304L16 16L62.241 16L108.482 16L87.741 36.759C76.333 48.176 67 57.96 67 58.501C67 59.042 77.584 70.076 90.52 83.02L114.04 106.555L110.245 110.261L106.45 113.966L82.983 90.483M55 54.5L82.486 27L54.743 27L27 27L27 54.5C27 69.625 27.116 82 27.257 82C27.398 82 39.883 69.625 55 54.5" />
    <glyph glyph-name="fullscreen-split-73"
      unicode="&#xEA74;"
      horiz-adv-x="256" d="M16 193.696L16 147.391L36.719 168.196C48.114 179.638 57.898 189 58.461 189C59.024 189 70.076 178.416 83.02 165.48L106.555 141.96L110.261 145.755L113.966 149.55L89.983 173.517L66.001 197.484L87.242 218.742L108.483 240L62.241 240L16 240L16 193.696M82 228.743C82 228.602 69.625 216.117 54.5 201L27 173.514L27 201.257L27 229L54.5 229C69.625 229 82 228.884 82 228.743M145.739 110.245L142.034 106.45L165.517 82.983C178.433 70.076 189 59.066 189 58.517C189 57.967 179.667 48.176 168.259 36.759L147.518 16L193.759 16L240 16L240 62.304L240 108.609L219.281 87.804C207.886 76.362 198.102 67 197.539 67C196.976 67 185.924 77.584 172.98 90.52L149.445 114.04L145.739 110.245M229 54.5L229 27L201.257 27L173.514 27L201 54.5C216.117 69.625 228.602 82 228.743 82C228.884 82 229 69.625 229 54.5" />
    <glyph glyph-name="hit-down"
      unicode="&#xEA75;"
      horiz-adv-x="256" d="M123 158.256L123 76.512L90.723 108.777L58.447 141.042L54.742 137.248L51.037 133.453L89.518 94.982L128 56.51L166.482 94.982L204.963 133.453L201.258 137.248L197.553 141.042L165.277 108.777L133 76.512L133 158.256L133 240L128 240L123 240L123 158.256M5 16L5 11L128 11L251 11L251 16L251 21L128 21L5 21L5 16" />
    <glyph glyph-name="hit-left"
      unicode="&#xEA76;"
      horiz-adv-x="256" d="M11 128L11 5L16 5L21 5L21 128L21 251L16 251L11 251L11 128M94.982 166.482L56.51 128L94.982 89.518L133.453 51.037L137.248 54.742L141.042 58.447L108.777 90.723L76.512 123L158.256 123L240 123L240 128L240 133L158.256 133L76.512 133L108.777 165.277L141.042 197.553L137.248 201.258L133.453 204.963L94.982 166.482" />
    <glyph glyph-name="hit-right"
      unicode="&#xEA77;"
      horiz-adv-x="256" d="M235 128L235 5L240 5L245 5L245 128L245 251L240 251L235 251L235 128M118.735 201.269L114.989 197.522L147.239 165.261L179.488 133L97.744 133L16 133L16 128L16 123L97.744 123L179.488 123L147.223 90.723L114.958 58.447L118.752 54.742L122.547 51.037L161.02 89.52L199.494 128.003L160.988 166.509L122.482 205.015L118.735 201.269" />
    <glyph glyph-name="hit-up"
      unicode="&#xEA78;"
      horiz-adv-x="256" d="M5 240L5 235L128 235L251 235L251 240L251 245L128 245L5 245L5 240M89.239 160.739L50.988 122.479L54.733 118.734L58.478 114.989L90.739 147.239L123 179.488L123 97.744L123 16L128 16L133 16L133 97.744L133 179.488L165.277 147.223L197.553 114.958L201.258 118.752L204.963 122.547L166.727 160.773C145.697 181.798 128.265 199 127.99 199C127.715 199 110.277 181.783 89.239 160.739" />
    <glyph glyph-name="input-12"
      unicode="&#xEA79;"
      horiz-adv-x="256" d="M5.671 250.337C5.302 249.968 5 235.567 5 218.333L5 187L10.5 187L16 187L16 213.5L16 240L128 240L240 240L240 128L240 16L128 16L16 16L16 42.5L16 69L10.486 69L4.972 69L5.236 37.25L5.5 5.5L128 5.5L250.5 5.5L250.5 128L250.5 250.5L128.421 250.754C61.277 250.894 6.039 250.706 5.671 250.337M102.737 174.27L98.993 170.526L117.737 151.763L136.48 133L73.74 133L11 133L11 128L11 123L73.74 123L136.48 123L117.721 104.221L98.962 85.443L102.756 81.739L106.549 78.034L131.52 103.02L156.49 128.005L131.485 153.01L106.481 178.014L102.737 174.27" />
    <glyph glyph-name="input-21"
      unicode="&#xEA7A;"
      horiz-adv-x="256" d="M48 181.5L48 112L53.5 112L59 112L59 176L59 240L139 240L219 240L219 128L219 16L159.948 16L100.895 16L101.198 10.75L101.5 5.5L165.25 5.243L229 4.985L229 127.993L229 251L138.5 251L48 251L48 181.5M101 160L101 155L129 155C144.4 155 157 154.661 157 154.247C157 153.833 125.734 122.231 87.519 84.019L18.039 14.544L21.744 10.75L25.45 6.955L95.225 76.725L165 146.495L165 118.747L165 91L170.5 91L176 91L176 128L176 165L138.5 165L101 165L101 160" />
    </font>
</defs>
</svg>
